<svg width="23" height="27" viewBox="0 0 23 27" fill="none" xmlns="http://www.w3.org/2000/svg">
<path d="M18.9947 22.5294L12.7878 26.7066C12.2922 27.037 11.655 27.0449 11.1594 26.7145L4.80305 22.5215C2.32502 20.8852 0.838196 18.124 0.838196 15.1582V5.00219C0.838196 3.67271 1.73501 2.50842 3.01729 2.16228L8.83084 0.61253C10.8133 0.0854556 12.9058 0.0854556 14.8883 0.61253L20.7018 2.16228C21.992 2.50842 22.8809 3.67271 22.8809 5.00219V15.2133C22.8888 18.1476 21.4256 20.8852 18.9947 22.5294Z" fill="#E20613"/>
<path d="M17.0045 9.17164H6.71477C5.90449 9.17164 5.24368 8.51083 5.24368 7.70055C5.24368 6.89027 5.90449 6.22946 6.71477 6.22946H17.0045C17.8148 6.22946 18.4756 6.89027 18.4756 7.70055C18.4756 8.51869 17.8227 9.17164 17.0045 9.17164ZM11.8596 12.1138C11.8596 11.3035 11.1988 10.6427 10.3886 10.6427H6.71477C5.90449 10.6427 5.24368 11.3035 5.24368 12.1138C5.24368 12.9241 5.90449 13.5849 6.71477 13.5849H10.3886C11.2067 13.5849 11.8596 12.9241 11.8596 12.1138ZM8.18586 16.5271C8.18586 15.7168 7.52505 15.056 6.71477 15.056C5.90449 15.056 5.24368 15.7168 5.24368 16.5271C5.24368 17.3373 5.90449 17.9982 6.71477 17.9982C7.53291 17.9982 8.18586 17.3373 8.18586 16.5271Z" fill="#F3F3F3"/>
</svg>
