<svg width="28" height="27" viewBox="0 0 28 27" fill="none" xmlns="http://www.w3.org/2000/svg">
<path d="M0.368896 5.43387C0.368896 2.5528 2.70447 0.217224 5.58554 0.217224H21.8934C24.7745 0.217224 27.1101 2.55279 27.1101 5.43387V21.7418C27.1101 24.6228 24.7745 26.9584 21.8934 26.9584H5.58554C2.70447 26.9584 0.368896 24.6228 0.368896 21.7418V5.43387Z" fill="#E20613"/>
<path d="M10.2332 21.8095C10.0704 21.8098 9.90921 21.7778 9.75883 21.7155C9.60844 21.6532 9.47186 21.5617 9.35693 21.4464L5.8513 17.9408C5.27539 17.3655 4.81847 16.6824 4.50666 15.9304C4.19484 15.1785 4.03424 14.3725 4.03403 13.5584C4.03381 12.7444 4.19399 11.9383 4.50541 11.1862C4.81682 10.4341 5.27338 9.75071 5.84899 9.1751C6.4246 8.59949 7.10798 8.14294 7.86009 7.83152C8.61219 7.5201 9.41829 7.35992 10.2323 7.36014C11.0464 7.36035 11.8524 7.52096 12.6043 7.83277C13.3563 8.14459 14.0394 8.6015 14.6147 9.17741L18.1203 12.6826C18.3527 12.915 18.4833 13.2302 18.4833 13.5589C18.4833 13.8876 18.3527 14.2028 18.1203 14.4352C17.8879 14.6676 17.5727 14.7982 17.244 14.7982C16.9154 14.7982 16.6002 14.6676 16.3677 14.4352L12.8621 10.93C12.1648 10.2327 11.2191 9.84099 10.233 9.84099C9.2469 9.84099 8.30118 10.2327 7.6039 10.93C6.90661 11.6273 6.51488 12.573 6.51488 13.5591C6.51488 14.5452 6.90661 15.4909 7.6039 16.1882L11.1095 19.6939C11.2828 19.8672 11.4008 20.088 11.4487 20.3284C11.4965 20.5688 11.4719 20.818 11.3781 21.0444C11.2843 21.2709 11.1255 21.4644 10.9217 21.6006C10.7179 21.7368 10.4783 21.8095 10.2332 21.8096V21.8095Z" fill="white"/>
<path d="M17.244 19.7532C16.4302 19.7546 15.6242 19.5952 14.8722 19.2842C14.1202 18.9732 13.4371 18.5166 12.8621 17.9408L9.35688 14.4351C9.12503 14.2026 8.99494 13.8876 8.99518 13.5592C8.99542 13.2309 9.12596 12.916 9.35815 12.6838C9.59034 12.4516 9.90518 12.3211 10.2335 12.3209C10.5619 12.3206 10.8769 12.4507 11.1095 12.6826L14.6147 16.1882C15.3121 16.8846 16.2576 17.2755 17.2432 17.2752C18.2288 17.2748 19.1739 16.8831 19.8709 16.1862C20.5679 15.4893 20.9596 14.5442 20.9601 13.5586C20.9605 12.573 20.5696 11.6275 19.8733 10.93L16.3677 7.42434C16.2526 7.30926 16.1613 7.17265 16.099 7.02229C16.0368 6.87194 16.0047 6.71079 16.0047 6.54804C16.0047 6.3853 16.0368 6.22415 16.099 6.0738C16.1613 5.92344 16.2526 5.78683 16.3677 5.67175C16.4828 5.55667 16.6194 5.46539 16.7697 5.40311C16.9201 5.34083 17.0812 5.30878 17.244 5.30878C17.4067 5.30878 17.5679 5.34083 17.7182 5.40311C17.8686 5.46539 18.0052 5.55667 18.1203 5.67175L21.6259 9.17737C22.4929 10.0437 23.0834 11.1477 23.3227 12.3497C23.562 13.5518 23.4393 14.7978 22.9702 15.9301C22.501 17.0623 21.7065 18.03 20.6872 18.7106C19.6679 19.3911 18.4696 19.754 17.244 19.7532Z" fill="white"/>
</svg>
