<svg width="80" height="40" viewBox="0 0 80 40" fill="none" xmlns="http://www.w3.org/2000/svg">
<path d="M48.0002 5.63647V10.2636H43.3823L48.0002 5.63647Z" fill="#18A957"/>
<path d="M41.7959 0V9.81564H32L41.7959 0Z" fill="#3D53F5"/>
<ellipse cx="34.3141" cy="2.31384" rx="2.31407" ry="2.31384" fill="#64748B"/>
<ellipse cx="45.6861" cy="13.6861" rx="2.31407" ry="2.31384" fill="#64748B"/>
<rect x="32" y="11.3723" width="9.79591" height="4.62767" fill="#FFBB38"/>
<rect x="43.3721" width="4.62815" height="4.62767" fill="#64748B"/>
<path d="M7.36179 35.2638H5.17041V23.9299H7.2911V25.4379C7.63669 24.841 8.12367 24.3854 8.75202 24.0712C9.38037 23.7571 10.0401 23.6 10.7313 23.6C11.4696 23.6 12.1451 23.7806 12.7578 24.1419C13.3704 24.5032 13.826 25.0373 14.1244 25.7442C14.9099 24.3147 16.1744 23.6 17.9181 23.6C19.002 23.6 19.921 23.9691 20.675 24.7075C21.4447 25.4458 21.8296 26.514 21.8296 27.9121V35.2638H19.6382V28.1477C19.6382 27.3622 19.434 26.7339 19.0256 26.2626C18.6329 25.7914 18.0359 25.5557 17.2348 25.5557C16.4651 25.5557 15.8367 25.8306 15.3497 26.3804C14.8628 26.9145 14.6193 27.59 14.6193 28.4069V35.2638H12.4043V28.1477C12.4043 27.3622 12.2001 26.7339 11.7917 26.2626C11.399 25.7914 10.802 25.5557 10.0009 25.5557C9.21543 25.5557 8.57922 25.8228 8.09225 26.3569C7.60528 26.891 7.36179 27.5822 7.36179 28.4304V35.2638Z" fill="#070D1C"/>
<path d="M26.1752 32.5776C26.8664 33.2845 27.7068 33.6379 28.6965 33.6379C29.6861 33.6379 30.5187 33.2845 31.1942 32.5776C31.8853 31.855 32.2309 30.8575 32.2309 29.585C32.2309 28.3283 31.8853 27.3465 31.1942 26.6396C30.5187 25.917 29.6861 25.5557 28.6965 25.5557C27.7068 25.5557 26.8664 25.917 26.1752 26.6396C25.4997 27.3465 25.162 28.3283 25.162 29.585C25.162 30.8575 25.4997 31.855 26.1752 32.5776ZM24.5258 25.2965C25.6254 24.1498 27.0156 23.5764 28.6965 23.5764C30.3773 23.5764 31.7597 24.1498 32.8436 25.2965C33.9432 26.4276 34.493 27.8571 34.493 29.585C34.493 31.3287 33.9511 32.7739 32.8671 33.9207C31.7832 35.0517 30.393 35.6172 28.6965 35.6172C26.9999 35.6172 25.6097 35.0517 24.5258 33.9207C23.4419 32.7739 22.8999 31.3287 22.8999 29.585C22.8999 27.8571 23.4419 26.4276 24.5258 25.2965Z" fill="#070D1C"/>
<path d="M38.1626 40H35.7356L38.5632 34.0149L33.6856 23.9299H36.2304L39.7649 31.7529L43.158 23.9299H45.5379L38.1626 40Z" fill="#070D1C"/>
<path d="M48.4701 32.5776C49.1612 33.2845 50.0017 33.6379 50.9913 33.6379C51.981 33.6379 52.8135 33.2845 53.489 32.5776C54.1802 31.855 54.5258 30.8575 54.5258 29.585C54.5258 28.3283 54.1802 27.3465 53.489 26.6396C52.8135 25.917 51.981 25.5557 50.9913 25.5557C50.0017 25.5557 49.1612 25.917 48.4701 26.6396C47.7946 27.3465 47.4568 28.3283 47.4568 29.585C47.4568 30.8575 47.7946 31.855 48.4701 32.5776ZM46.8206 25.2965C47.9202 24.1498 49.3105 23.5764 50.9913 23.5764C52.6722 23.5764 54.0545 24.1498 55.1385 25.2965C56.2381 26.4276 56.7879 27.8571 56.7879 29.585C56.7879 31.3287 56.2459 32.7739 55.162 33.9207C54.0781 35.0517 52.6879 35.6172 50.9913 35.6172C49.2948 35.6172 47.9045 35.0517 46.8206 33.9207C45.7367 32.7739 45.1948 31.3287 45.1948 29.585C45.1948 27.8571 45.7367 26.4276 46.8206 25.2965Z" fill="#070D1C"/>
<path d="M68.5051 33.8971C68.2066 34.4626 67.751 34.8946 67.1384 35.1931C66.5257 35.4759 65.866 35.6172 65.1591 35.6172C63.871 35.6172 62.842 35.1931 62.0723 34.3448C61.3026 33.4808 60.9177 32.3891 60.9177 31.0695V23.9299H63.1326V30.7396C63.1326 31.5879 63.3369 32.287 63.7453 32.8368C64.1694 33.3866 64.8213 33.6615 65.701 33.6615C66.5807 33.6615 67.2483 33.4023 67.7039 32.8839C68.1595 32.3498 68.3872 31.6429 68.3872 30.7632V23.9299H70.6022V33.1667C70.6022 33.905 70.6415 34.604 70.72 35.2638H68.5993C68.5365 34.9182 68.5051 34.4626 68.5051 33.8971Z" fill="#070D1C"/>
<path d="M74.3347 35.2638H72.1434V23.9299H74.3347V35.2638ZM72.0962 20.7724C71.7978 20.4582 71.6485 20.0812 71.6485 19.6414C71.6485 19.2015 71.7978 18.8245 72.0962 18.5103C72.4104 18.1962 72.7874 18.0391 73.2273 18.0391C73.6671 18.0391 74.0441 18.1962 74.3583 18.5103C74.6725 18.8088 74.8296 19.1858 74.8296 19.6414C74.8296 20.0812 74.6725 20.4582 74.3583 20.7724C74.0441 21.0709 73.6671 21.2201 73.2273 21.2201C72.7874 21.2201 72.4104 21.0709 72.0962 20.7724Z" fill="#070D1C"/>
</svg>
