<svg width="123" height="31" viewBox="0 0 123 31" fill="none" xmlns="http://www.w3.org/2000/svg">
<path d="M19.9998 12.2253V18.0093H14.2275L19.9998 12.2253Z" fill="#18A957"/>
<path d="M12.2449 5.17969V17.4492H0L12.2449 5.17969Z" fill="#3D53F5"/>
<ellipse cx="2.89259" cy="8.07198" rx="2.89259" ry="2.89229" fill="#64748B"/>
<ellipse cx="17.1074" cy="22.2873" rx="2.89259" ry="2.89229" fill="#64748B"/>
<rect y="19.395" width="12.2449" height="5.78459" fill="#FFBB38"/>
<rect x="14.2148" y="5.17969" width="5.78519" height="5.78459" fill="#64748B"/>
<path d="M31.8507 23.936H28.8901V8.62379H31.7552V10.6612C32.2221 9.85471 32.88 9.23925 33.7289 8.8148C34.5778 8.39034 35.4692 8.17811 36.403 8.17811C37.4004 8.17811 38.313 8.42218 39.1407 8.9103C39.9684 9.39842 40.5838 10.12 40.9871 11.075C42.0482 9.14375 43.7566 8.17811 46.1124 8.17811C47.5767 8.17811 48.8182 8.67685 49.8369 9.67432C50.8769 10.6718 51.3968 12.1149 51.3968 14.0037V23.936H48.4362V14.3221C48.4362 13.2609 48.1603 12.412 47.6086 11.7754C47.078 11.1387 46.2715 10.8203 45.1892 10.8203C44.1493 10.8203 43.3003 11.1917 42.6424 11.9345C41.9845 12.6561 41.6556 13.5687 41.6556 14.6723V23.936H38.6632V14.3221C38.6632 13.2609 38.3873 12.412 37.8355 11.7754C37.3049 11.1387 36.4985 10.8203 35.4161 10.8203C34.355 10.8203 33.4955 11.1811 32.8376 11.9027C32.1797 12.6243 31.8507 13.5581 31.8507 14.7041V23.936Z" fill="#070D1C"/>
<path d="M57.2677 20.3069C58.2015 21.2619 59.3369 21.7394 60.6739 21.7394C62.011 21.7394 63.1358 21.2619 64.0483 20.3069C64.9821 19.3306 65.449 17.983 65.449 16.264C65.449 14.5661 64.9821 13.2397 64.0483 12.2847C63.1358 11.3085 62.011 10.8203 60.6739 10.8203C59.3369 10.8203 58.2015 11.3085 57.2677 12.2847C56.3551 13.2397 55.8988 14.5661 55.8988 16.264C55.8988 17.983 56.3551 19.3306 57.2677 20.3069ZM55.0393 10.4702C56.5249 8.92091 58.4031 8.14628 60.6739 8.14628C62.9448 8.14628 64.8124 8.92091 66.2767 10.4702C67.7623 11.9982 68.5051 13.9295 68.5051 16.264C68.5051 18.6197 67.7729 20.5722 66.3086 22.1214C64.8442 23.6495 62.966 24.4135 60.6739 24.4135C58.3819 24.4135 56.5037 23.6495 55.0393 22.1214C53.5749 20.5722 52.8428 18.6197 52.8428 16.264C52.8428 13.9295 53.5749 11.9982 55.0393 10.4702Z" fill="#070D1C"/>
<path d="M73.4628 30.3346H70.1839L74.0039 22.2488L67.4143 8.62379H70.8524L75.6275 19.1927L80.2116 8.62379H83.4268L73.4628 30.3346Z" fill="#070D1C"/>
<path d="M87.3882 20.3069C88.322 21.2619 89.4574 21.7394 90.7944 21.7394C92.1314 21.7394 93.2562 21.2619 94.1688 20.3069C95.1026 19.3306 95.5695 17.983 95.5695 16.264C95.5695 14.5661 95.1026 13.2397 94.1688 12.2847C93.2562 11.3085 92.1314 10.8203 90.7944 10.8203C89.4574 10.8203 88.322 11.3085 87.3882 12.2847C86.4756 13.2397 86.0193 14.5661 86.0193 16.264C86.0193 17.983 86.4756 19.3306 87.3882 20.3069ZM85.1598 10.4702C86.6454 8.92091 88.5236 8.14628 90.7944 8.14628C93.0652 8.14628 94.9328 8.92091 96.3972 10.4702C97.8828 11.9982 98.6256 13.9295 98.6256 16.264C98.6256 18.6197 97.8934 20.5722 96.429 22.1214C94.9647 23.6495 93.0865 24.4135 90.7944 24.4135C88.5024 24.4135 86.6242 23.6495 85.1598 22.1214C83.6954 20.5722 82.9632 18.6197 82.9632 16.264C82.9632 13.9295 83.6954 11.9982 85.1598 10.4702Z" fill="#070D1C"/>
<path d="M114.456 22.0896C114.052 22.8536 113.437 23.4372 112.609 23.8405C111.782 24.2225 110.89 24.4135 109.935 24.4135C108.195 24.4135 106.805 23.8405 105.765 22.6944C104.725 21.5272 104.205 20.0522 104.205 18.2695V8.62379H107.197V17.8238C107.197 18.9699 107.473 19.9143 108.025 20.6571C108.598 21.3999 109.479 21.7713 110.667 21.7713C111.856 21.7713 112.758 21.4211 113.373 20.7207C113.989 19.9992 114.296 19.0441 114.296 17.8557V8.62379H117.289V21.1027C117.289 22.1002 117.342 23.0446 117.448 23.936H114.583C114.498 23.4691 114.456 22.8536 114.456 22.0896Z" fill="#070D1C"/>
<path d="M122.331 23.936H119.371V8.62379H122.331V23.936ZM119.307 4.35803C118.904 3.93358 118.702 3.42423 118.702 2.83C118.702 2.23576 118.904 1.72642 119.307 1.30196C119.732 0.87751 120.241 0.665283 120.835 0.665283C121.43 0.665283 121.939 0.87751 122.363 1.30196C122.788 1.70519 123 2.21454 123 2.83C123 3.42423 122.788 3.93358 122.363 4.35803C121.939 4.76126 121.43 4.96288 120.835 4.96288C120.241 4.96288 119.732 4.76126 119.307 4.35803Z" fill="#070D1C"/>
</svg>
