<svg width="244" height="244" viewBox="0 0 244 244" fill="none" xmlns="http://www.w3.org/2000/svg">
<path d="M10.59 0.9021H0.902222V10.5899H10.59V0.9021Z" fill="black"/>
<path d="M20.2779 0.9021H10.59V10.5899H20.2779V0.9021Z" fill="black"/>
<path d="M29.9657 0.9021H20.2779V10.5899H29.9657V0.9021Z" fill="black"/>
<path d="M39.6535 0.9021H29.9657V10.5899H39.6535V0.9021Z" fill="black"/>
<path d="M49.3413 0.9021H39.6535V10.5899H49.3413V0.9021Z" fill="black"/>
<path d="M59.0291 0.9021H49.3413V10.5899H59.0291V0.9021Z" fill="black"/>
<path d="M68.717 0.9021H59.0291V10.5899H68.717V0.9021Z" fill="black"/>
<path d="M88.0926 0.9021H78.4048V10.5899H88.0926V0.9021Z" fill="black"/>
<path d="M97.7804 0.9021H88.0926V10.5899H97.7804V0.9021Z" fill="black"/>
<path d="M136.532 0.9021H126.844V10.5899H136.532V0.9021Z" fill="black"/>
<path d="M165.595 0.9021H155.907V10.5899H165.595V0.9021Z" fill="black"/>
<path d="M184.971 0.9021H175.283V10.5899H184.971V0.9021Z" fill="black"/>
<path d="M194.659 0.9021H184.971V10.5899H194.659V0.9021Z" fill="black"/>
<path d="M204.346 0.9021H194.659V10.5899H204.346V0.9021Z" fill="black"/>
<path d="M214.034 0.9021H204.346V10.5899H214.034V0.9021Z" fill="black"/>
<path d="M223.722 0.9021H214.034V10.5899H223.722V0.9021Z" fill="black"/>
<path d="M233.41 0.9021H223.722V10.5899H233.41V0.9021Z" fill="black"/>
<path d="M243.098 0.9021H233.41V10.5899H243.098V0.9021Z" fill="black"/>
<path d="M10.59 10.5899H0.902222V20.2777H10.59V10.5899Z" fill="black"/>
<path d="M68.717 10.5899H59.0291L59.0291 20.2777H68.717V10.5899Z" fill="black"/>
<path d="M126.844 10.5899H117.156V20.2777H126.844V10.5899Z" fill="black"/>
<path d="M136.532 10.5899H126.844V20.2777H136.532V10.5899Z" fill="black"/>
<path d="M165.595 10.5899H155.907V20.2777H165.595V10.5899Z" fill="black"/>
<path d="M184.971 10.5899H175.283V20.2777H184.971V10.5899Z" fill="black"/>
<path d="M243.098 10.5899H233.41V20.2777H243.098V10.5899Z" fill="black"/>
<path d="M10.59 20.2777H0.902222V29.9656H10.59V20.2777Z" fill="black"/>
<path d="M29.9657 20.2777H20.2779V29.9656H29.9657V20.2777Z" fill="black"/>
<path d="M39.6535 20.2777H29.9657V29.9656H39.6535V20.2777Z" fill="black"/>
<path d="M49.3413 20.2777H39.6535V29.9656H49.3413V20.2777Z" fill="black"/>
<path d="M68.717 20.2777H59.0291V29.9656H68.717V20.2777Z" fill="black"/>
<path d="M97.7804 20.2777H88.0926V29.9656H97.7804V20.2777Z" fill="black"/>
<path d="M107.468 20.2777H97.7804V29.9656H107.468V20.2777Z" fill="black"/>
<path d="M117.156 20.2777H107.468V29.9656H117.156V20.2777Z" fill="black"/>
<path d="M126.844 20.2777H117.156V29.9656H126.844V20.2777Z" fill="black"/>
<path d="M136.532 20.2777H126.844V29.9656H136.532V20.2777Z" fill="black"/>
<path d="M165.595 20.2777H155.907V29.9656H165.595V20.2777Z" fill="black"/>
<path d="M184.971 20.2777H175.283V29.9656H184.971V20.2777Z" fill="black"/>
<path d="M204.346 20.2777H194.659V29.9656H204.346V20.2777Z" fill="black"/>
<path d="M214.034 20.2777H204.346V29.9656H214.034V20.2777Z" fill="black"/>
<path d="M223.722 20.2777H214.034V29.9656H223.722V20.2777Z" fill="black"/>
<path d="M243.098 20.2777H233.41V29.9656H243.098V20.2777Z" fill="black"/>
<path d="M10.59 29.9656H0.902222V39.6534H10.59V29.9656Z" fill="black"/>
<path d="M29.9657 29.9656H20.2779V39.6534H29.9657V29.9656Z" fill="black"/>
<path d="M39.6535 29.9656H29.9657V39.6534H39.6535V29.9656Z" fill="black"/>
<path d="M49.3413 29.9656H39.6535V39.6534H49.3413V29.9656Z" fill="black"/>
<path d="M68.717 29.9656H59.0291V39.6534H68.717V29.9656Z" fill="black"/>
<path d="M97.7804 29.9656H88.0926V39.6534H97.7804V29.9656Z" fill="black"/>
<path d="M107.468 29.9656H97.7804V39.6534H107.468V29.9656Z" fill="black"/>
<path d="M136.532 29.9656H126.844V39.6534H136.532V29.9656Z" fill="black"/>
<path d="M184.971 29.9656H175.283V39.6534H184.971V29.9656Z" fill="black"/>
<path d="M204.346 29.9656H194.659V39.6534H204.346V29.9656Z" fill="black"/>
<path d="M214.034 29.9656H204.346V39.6534H214.034V29.9656Z" fill="black"/>
<path d="M223.722 29.9656H214.034V39.6534H223.722V29.9656Z" fill="black"/>
<path d="M243.098 29.9656H233.41V39.6534H243.098V29.9656Z" fill="black"/>
<path d="M10.59 39.6534H0.902222V49.3412H10.59V39.6534Z" fill="black"/>
<path d="M29.9657 39.6534H20.2779V49.3412H29.9657V39.6534Z" fill="black"/>
<path d="M39.6535 39.6534H29.9657V49.3412H39.6535V39.6534Z" fill="black"/>
<path d="M49.3413 39.6534H39.6535V49.3412H49.3413V39.6534Z" fill="black"/>
<path d="M68.717 39.6534H59.0291V49.3412H68.717V39.6534Z" fill="black"/>
<path d="M88.0926 39.6534H78.4048V49.3412H88.0926V39.6534Z" fill="black"/>
<path d="M107.468 39.6534H97.7804V49.3412H107.468V39.6534Z" fill="black"/>
<path d="M117.156 39.6534H107.468V49.3412H117.156V39.6534Z" fill="black"/>
<path d="M126.844 39.6534H117.156V49.3412H126.844V39.6534Z" fill="black"/>
<path d="M146.22 39.6534H136.532V49.3412H146.22V39.6534Z" fill="black"/>
<path d="M184.971 39.6534H175.283V49.3412H184.971V39.6534Z" fill="black"/>
<path d="M204.346 39.6534H194.659V49.3412H204.346V39.6534Z" fill="black"/>
<path d="M214.034 39.6534H204.346V49.3412H214.034V39.6534Z" fill="black"/>
<path d="M223.722 39.6534H214.034V49.3412H223.722V39.6534Z" fill="black"/>
<path d="M243.098 39.6534H233.41V49.3412H243.098V39.6534Z" fill="black"/>
<path d="M10.59 49.3412H0.902222V59.029H10.59V49.3412Z" fill="black"/>
<path d="M68.717 49.3412H59.0291V59.029H68.717V49.3412Z" fill="black"/>
<path d="M146.22 49.3412H136.532V59.029H146.22V49.3412Z" fill="black"/>
<path d="M184.971 49.3412H175.283V59.029H184.971V49.3412Z" fill="black"/>
<path d="M243.098 49.3412H233.41V59.029H243.098V49.3412Z" fill="black"/>
<path d="M10.59 59.029H0.902222V68.7168H10.59V59.029Z" fill="black"/>
<path d="M20.2779 59.029L10.59 59.029V68.7168H20.2779V59.029Z" fill="black"/>
<path d="M29.9657 59.029H20.2779V68.7168H29.9657V59.029Z" fill="black"/>
<path d="M39.6535 59.029H29.9657V68.7168H39.6535V59.029Z" fill="black"/>
<path d="M49.3413 59.029H39.6535V68.7168H49.3413V59.029Z" fill="black"/>
<path d="M59.0291 59.029L49.3413 59.029V68.7168H59.0291L59.0291 59.029Z" fill="black"/>
<path d="M68.717 59.029H59.0291L59.0291 68.7168H68.717V59.029Z" fill="black"/>
<path d="M88.0926 59.029H78.4048V68.7168H88.0926V59.029Z" fill="black"/>
<path d="M107.468 59.029H97.7804V68.7168H107.468V59.029Z" fill="black"/>
<path d="M126.844 59.029H117.156V68.7168H126.844V59.029Z" fill="black"/>
<path d="M146.22 59.029H136.532V68.7168H146.22V59.029Z" fill="black"/>
<path d="M165.595 59.029H155.907V68.7168H165.595V59.029Z" fill="black"/>
<path d="M184.971 59.029H175.283V68.7168H184.971V59.029Z" fill="black"/>
<path d="M194.659 59.029L184.971 59.029V68.7168H194.659V59.029Z" fill="black"/>
<path d="M204.346 59.029H194.659V68.7168H204.346V59.029Z" fill="black"/>
<path d="M214.034 59.029H204.346V68.7168H214.034V59.029Z" fill="black"/>
<path d="M223.722 59.029H214.034V68.7168H223.722V59.029Z" fill="black"/>
<path d="M233.41 59.029L223.722 59.029V68.7168H233.41V59.029Z" fill="black"/>
<path d="M243.098 59.029H233.41V68.7168H243.098V59.029Z" fill="black"/>
<path d="M88.0926 68.7168H78.4048V78.4047H88.0926V68.7168Z" fill="black"/>
<path d="M107.468 68.7168H97.7804V78.4047H107.468V68.7168Z" fill="black"/>
<path d="M126.844 68.7168H117.156V78.4047H126.844V68.7168Z" fill="black"/>
<path d="M136.532 68.7168H126.844V78.4047H136.532V68.7168Z" fill="black"/>
<path d="M155.907 68.7168H146.22L146.22 78.4047H155.907V68.7168Z" fill="black"/>
<path d="M165.595 68.7168H155.907V78.4047H165.595V68.7168Z" fill="black"/>
<path d="M10.59 78.4047H0.902222V88.0925H10.59V78.4047Z" fill="black"/>
<path d="M39.6535 78.4047H29.9657V88.0925H39.6535V78.4047Z" fill="black"/>
<path d="M49.3413 78.4047H39.6535V88.0925H49.3413V78.4047Z" fill="black"/>
<path d="M59.0291 78.4047H49.3413V88.0925H59.0291V78.4047Z" fill="black"/>
<path d="M68.717 78.4047H59.0291V88.0925H68.717V78.4047Z" fill="black"/>
<path d="M78.4048 78.4047H68.717V88.0925H78.4048V78.4047Z" fill="black"/>
<path d="M88.0926 78.4047H78.4048V88.0925H88.0926V78.4047Z" fill="black"/>
<path d="M97.7804 78.4047H88.0926V88.0925H97.7804V78.4047Z" fill="black"/>
<path d="M136.532 78.4047H126.844V88.0925H136.532V78.4047Z" fill="black"/>
<path d="M165.595 78.4047H155.907V88.0925H165.595V78.4047Z" fill="black"/>
<path d="M175.283 78.4047H165.595V88.0925H175.283V78.4047Z" fill="black"/>
<path d="M184.971 78.4047H175.283V88.0925H184.971V78.4047Z" fill="black"/>
<path d="M204.346 78.4047H194.659V88.0925H204.346V78.4047Z" fill="black"/>
<path d="M243.098 78.4047H233.41V88.0925H243.098V78.4047Z" fill="black"/>
<path d="M20.2779 88.0925H10.59V97.7803H20.2779V88.0925Z" fill="black"/>
<path d="M39.6535 88.0925H29.9657V97.7803H39.6535V88.0925Z" fill="black"/>
<path d="M49.3413 88.0925H39.6535V97.7803H49.3413V88.0925Z" fill="black"/>
<path d="M78.4048 88.0925H68.717V97.7803H78.4048V88.0925Z" fill="black"/>
<path d="M88.0926 88.0925H78.4048V97.7803H88.0926V88.0925Z" fill="black"/>
<path d="M126.844 88.0925H117.156V97.7803H126.844V88.0925Z" fill="black"/>
<path d="M155.907 88.0925H146.22V97.7803H155.907V88.0925Z" fill="black"/>
<path d="M175.283 88.0925H165.595V97.7803H175.283V88.0925Z" fill="black"/>
<path d="M184.971 88.0925H175.283V97.7803H184.971V88.0925Z" fill="black"/>
<path d="M204.346 88.0925H194.659V97.7803H204.346V88.0925Z" fill="black"/>
<path d="M214.034 88.0925H204.346V97.7803H214.034V88.0925Z" fill="black"/>
<path d="M223.722 88.0925H214.034V97.7803H223.722V88.0925Z" fill="black"/>
<path d="M233.41 88.0925H223.722V97.7803H233.41V88.0925Z" fill="black"/>
<path d="M243.098 88.0925H233.41V97.7803H243.098V88.0925Z" fill="black"/>
<path d="M10.59 97.7803H0.902222V107.468H10.59V97.7803Z" fill="black"/>
<path d="M20.2779 97.7803H10.59V107.468H20.2779V97.7803Z" fill="black"/>
<path d="M39.6535 97.7803H29.9657V107.468H39.6535V97.7803Z" fill="black"/>
<path d="M49.3413 97.7803H39.6535V107.468H49.3413V97.7803Z" fill="black"/>
<path d="M59.0291 97.7803H49.3413V107.468H59.0291V97.7803Z" fill="black"/>
<path d="M68.717 97.7803H59.0291V107.468H68.717V97.7803Z" fill="black"/>
<path d="M78.4048 97.7803H68.717V107.468H78.4048V97.7803Z" fill="black"/>
<path d="M97.7804 97.7803H88.0926V107.468H97.7804V97.7803Z" fill="black"/>
<path d="M117.156 97.7803H107.468V107.468H117.156V97.7803Z" fill="black"/>
<path d="M126.844 97.7803H117.156V107.468H126.844V97.7803Z" fill="black"/>
<path d="M146.22 97.7803H136.532V107.468H146.22L146.22 97.7803Z" fill="black"/>
<path d="M165.595 97.7803H155.907V107.468H165.595V97.7803Z" fill="black"/>
<path d="M175.283 97.7803H165.595V107.468H175.283V97.7803Z" fill="black"/>
<path d="M184.971 97.7803H175.283V107.468H184.971V97.7803Z" fill="black"/>
<path d="M194.659 97.7803H184.971V107.468H194.659V97.7803Z" fill="black"/>
<path d="M204.346 97.7803H194.659V107.468H204.346V97.7803Z" fill="black"/>
<path d="M214.034 97.7803H204.346V107.468H214.034V97.7803Z" fill="black"/>
<path d="M223.722 97.7803H214.034V107.468H223.722V97.7803Z" fill="black"/>
<path d="M233.41 97.7803H223.722V107.468H233.41V97.7803Z" fill="black"/>
<path d="M10.59 107.468H0.902222V117.156H10.59V107.468Z" fill="black"/>
<path d="M49.3413 107.468H39.6535V117.156H49.3413V107.468Z" fill="black"/>
<path d="M59.0291 107.468H49.3413V117.156H59.0291V107.468Z" fill="black"/>
<path d="M78.4048 107.468H68.717V117.156H78.4048V107.468Z" fill="black"/>
<path d="M97.7804 107.468H88.0926V117.156H97.7804V107.468Z" fill="black"/>
<path d="M107.468 107.468H97.7804V117.156H107.468V107.468Z" fill="black"/>
<path d="M146.22 107.468H136.532V117.156H146.22V107.468Z" fill="black"/>
<path d="M155.907 107.468H146.22V117.156H155.907V107.468Z" fill="black"/>
<path d="M204.346 107.468H194.659V117.156H204.346V107.468Z" fill="black"/>
<path d="M223.722 107.468H214.034V117.156H223.722V107.468Z" fill="black"/>
<path d="M233.41 107.468H223.722V117.156H233.41V107.468Z" fill="black"/>
<path d="M10.59 117.156H0.902222V126.844H10.59V117.156Z" fill="black"/>
<path d="M39.6535 117.156H29.9657V126.844H39.6535V117.156Z" fill="black"/>
<path d="M49.3413 117.156H39.6535V126.844H49.3413V117.156Z" fill="black"/>
<path d="M59.0291 117.156H49.3413V126.844H59.0291V117.156Z" fill="black"/>
<path d="M68.717 117.156H59.0291V126.844H68.717V117.156Z" fill="black"/>
<path d="M78.4048 117.156H68.717V126.844H78.4048V117.156Z" fill="black"/>
<path d="M88.0926 117.156H78.4048V126.844H88.0926V117.156Z" fill="black"/>
<path d="M107.468 117.156H97.7804V126.844H107.468V117.156Z" fill="black"/>
<path d="M117.156 117.156H107.468V126.844H117.156V117.156Z" fill="black"/>
<path d="M136.532 117.156H126.844V126.844H136.532V117.156Z" fill="black"/>
<path d="M146.22 117.156H136.532V126.844H146.22V117.156Z" fill="black"/>
<path d="M165.595 117.156H155.907V126.844H165.595V117.156Z" fill="black"/>
<path d="M194.659 117.156H184.971V126.844H194.659V117.156Z" fill="black"/>
<path d="M214.034 117.156H204.346V126.844H214.034V117.156Z" fill="black"/>
<path d="M223.722 117.156H214.034V126.844H223.722V117.156Z" fill="black"/>
<path d="M243.098 117.156H233.41V126.844H243.098V117.156Z" fill="black"/>
<path d="M10.59 126.844H0.902222V136.532H10.59V126.844Z" fill="black"/>
<path d="M20.2779 126.844H10.59V136.532H20.2779V126.844Z" fill="black"/>
<path d="M78.4048 126.844H68.717V136.532H78.4048V126.844Z" fill="black"/>
<path d="M88.0926 126.844H78.4048V136.532H88.0926V126.844Z" fill="black"/>
<path d="M97.7804 126.844H88.0926V136.532H97.7804V126.844Z" fill="black"/>
<path d="M126.844 126.844H117.156V136.532H126.844V126.844Z" fill="black"/>
<path d="M146.22 126.844H136.532V136.532H146.22V126.844Z" fill="black"/>
<path d="M155.907 126.844H146.22V136.532H155.907V126.844Z" fill="black"/>
<path d="M165.595 126.844H155.907V136.532H165.595V126.844Z" fill="black"/>
<path d="M175.283 126.844H165.595V136.532H175.283V126.844Z" fill="black"/>
<path d="M204.346 126.844H194.659V136.532H204.346V126.844Z" fill="black"/>
<path d="M223.722 126.844H214.034V136.532H223.722V126.844Z" fill="black"/>
<path d="M233.41 126.844H223.722V136.532H233.41V126.844Z" fill="black"/>
<path d="M243.098 126.844H233.41V136.532H243.098V126.844Z" fill="black"/>
<path d="M10.59 136.532H0.902222V146.219H10.59V136.532Z" fill="black"/>
<path d="M20.2779 136.532H10.59V146.219H20.2779V136.532Z" fill="black"/>
<path d="M29.9657 136.532H20.2779V146.219H29.9657V136.532Z" fill="black"/>
<path d="M68.717 136.532H59.0291V146.219H68.717V136.532Z" fill="black"/>
<path d="M97.7804 136.532H88.0926V146.219H97.7804V136.532Z" fill="black"/>
<path d="M117.156 136.532H107.468V146.219H117.156V136.532Z" fill="black"/>
<path d="M126.844 136.532H117.156V146.219H126.844V136.532Z" fill="black"/>
<path d="M146.22 136.532H136.532V146.219H146.22V136.532Z" fill="black"/>
<path d="M175.283 136.532H165.595V146.219H175.283V136.532Z" fill="black"/>
<path d="M194.659 136.532H184.971V146.219H194.659V136.532Z" fill="black"/>
<path d="M204.346 136.532H194.659V146.219H204.346V136.532Z" fill="black"/>
<path d="M223.722 136.532H214.034V146.219H223.722V136.532Z" fill="black"/>
<path d="M20.2779 146.219H10.59V155.907H20.2779V146.219Z" fill="black"/>
<path d="M78.4048 146.219L68.717 146.219V155.907H78.4048V146.219Z" fill="black"/>
<path d="M126.844 146.219H117.156V155.907H126.844V146.219Z" fill="black"/>
<path d="M146.22 146.219H136.532V155.907H146.22V146.219Z" fill="black"/>
<path d="M155.907 146.219L146.22 146.219V155.907H155.907V146.219Z" fill="black"/>
<path d="M184.971 146.219H175.283V155.907H184.971V146.219Z" fill="black"/>
<path d="M204.346 146.219H194.659V155.907H204.346V146.219Z" fill="black"/>
<path d="M233.41 146.219L223.722 146.219V155.907H233.41V146.219Z" fill="black"/>
<path d="M10.59 155.907H0.902222V165.595H10.59V155.907Z" fill="black"/>
<path d="M59.0291 155.907H49.3413V165.595H59.0291V155.907Z" fill="black"/>
<path d="M68.717 155.907H59.0291V165.595H68.717V155.907Z" fill="black"/>
<path d="M78.4048 155.907H68.717V165.595H78.4048V155.907Z" fill="black"/>
<path d="M97.7804 155.907H88.0926V165.595H97.7804V155.907Z" fill="black"/>
<path d="M107.468 155.907H97.7804V165.595H107.468V155.907Z" fill="black"/>
<path d="M126.844 155.907H117.156V165.595H126.844V155.907Z" fill="black"/>
<path d="M155.907 155.907H146.22L146.22 165.595H155.907V155.907Z" fill="black"/>
<path d="M165.595 155.907H155.907V165.595H165.595V155.907Z" fill="black"/>
<path d="M175.283 155.907H165.595V165.595H175.283V155.907Z" fill="black"/>
<path d="M184.971 155.907H175.283V165.595H184.971V155.907Z" fill="black"/>
<path d="M194.659 155.907H184.971V165.595H194.659V155.907Z" fill="black"/>
<path d="M204.346 155.907H194.659V165.595H204.346V155.907Z" fill="black"/>
<path d="M214.034 155.907H204.346V165.595H214.034V155.907Z" fill="black"/>
<path d="M233.41 155.907H223.722V165.595H233.41V155.907Z" fill="black"/>
<path d="M88.0926 165.595H78.4048V175.283H88.0926V165.595Z" fill="black"/>
<path d="M107.468 165.595H97.7804V175.283H107.468V165.595Z" fill="black"/>
<path d="M126.844 165.595H117.156V175.283H126.844V165.595Z" fill="black"/>
<path d="M155.907 165.595H146.22V175.283H155.907V165.595Z" fill="black"/>
<path d="M165.595 165.595H155.907V175.283H165.595V165.595Z" fill="black"/>
<path d="M204.346 165.595H194.659V175.283H204.346V165.595Z" fill="black"/>
<path d="M214.034 165.595H204.346V175.283H214.034V165.595Z" fill="black"/>
<path d="M223.722 165.595H214.034V175.283H223.722V165.595Z" fill="black"/>
<path d="M10.59 175.283H0.902222V184.971H10.59V175.283Z" fill="black"/>
<path d="M20.2779 175.283H10.59V184.971H20.2779V175.283Z" fill="black"/>
<path d="M29.9657 175.283H20.2779V184.971H29.9657V175.283Z" fill="black"/>
<path d="M39.6535 175.283H29.9657V184.971H39.6535V175.283Z" fill="black"/>
<path d="M49.3413 175.283H39.6535V184.971H49.3413V175.283Z" fill="black"/>
<path d="M59.0291 175.283H49.3413V184.971H59.0291V175.283Z" fill="black"/>
<path d="M68.717 175.283H59.0291V184.971H68.717V175.283Z" fill="black"/>
<path d="M88.0926 175.283H78.4048V184.971H88.0926V175.283Z" fill="black"/>
<path d="M126.844 175.283H117.156V184.971H126.844V175.283Z" fill="black"/>
<path d="M155.907 175.283H146.22V184.971H155.907V175.283Z" fill="black"/>
<path d="M165.595 175.283H155.907V184.971H165.595V175.283Z" fill="black"/>
<path d="M184.971 175.283H175.283V184.971H184.971V175.283Z" fill="black"/>
<path d="M204.346 175.283H194.659V184.971H204.346V175.283Z" fill="black"/>
<path d="M214.034 175.283H204.346V184.971H214.034V175.283Z" fill="black"/>
<path d="M223.722 175.283H214.034V184.971H223.722V175.283Z" fill="black"/>
<path d="M243.098 175.283H233.41V184.971H243.098V175.283Z" fill="black"/>
<path d="M10.59 184.971H0.902222V194.659H10.59V184.971Z" fill="black"/>
<path d="M68.717 184.971H59.0291L59.0291 194.659H68.717V184.971Z" fill="black"/>
<path d="M88.0926 184.971H78.4048V194.659H88.0926V184.971Z" fill="black"/>
<path d="M107.468 184.971H97.7804V194.659H107.468V184.971Z" fill="black"/>
<path d="M146.22 184.971H136.532V194.659H146.22L146.22 184.971Z" fill="black"/>
<path d="M165.595 184.971H155.907V194.659H165.595V184.971Z" fill="black"/>
<path d="M204.346 184.971H194.659V194.659H204.346V184.971Z" fill="black"/>
<path d="M223.722 184.971H214.034V194.659H223.722V184.971Z" fill="black"/>
<path d="M10.59 194.659H0.902222V204.346H10.59V194.659Z" fill="black"/>
<path d="M29.9657 194.659H20.2779V204.346H29.9657V194.659Z" fill="black"/>
<path d="M39.6535 194.659H29.9657V204.346H39.6535V194.659Z" fill="black"/>
<path d="M49.3413 194.659H39.6535V204.346H49.3413V194.659Z" fill="black"/>
<path d="M68.717 194.659H59.0291V204.346H68.717V194.659Z" fill="black"/>
<path d="M88.0926 194.659H78.4048V204.346H88.0926V194.659Z" fill="black"/>
<path d="M97.7804 194.659H88.0926V204.346H97.7804V194.659Z" fill="black"/>
<path d="M107.468 194.659H97.7804V204.346H107.468V194.659Z" fill="black"/>
<path d="M136.532 194.659H126.844V204.346H136.532V194.659Z" fill="black"/>
<path d="M146.22 194.659H136.532V204.346H146.22V194.659Z" fill="black"/>
<path d="M165.595 194.659H155.907V204.346H165.595V194.659Z" fill="black"/>
<path d="M175.283 194.659H165.595V204.346H175.283V194.659Z" fill="black"/>
<path d="M184.971 194.659H175.283V204.346H184.971V194.659Z" fill="black"/>
<path d="M194.659 194.659H184.971V204.346H194.659V194.659Z" fill="black"/>
<path d="M204.346 194.659H194.659V204.346H204.346V194.659Z" fill="black"/>
<path d="M243.098 194.659H233.41V204.346H243.098V194.659Z" fill="black"/>
<path d="M10.59 204.346H0.902222V214.034H10.59V204.346Z" fill="black"/>
<path d="M29.9657 204.346H20.2779V214.034H29.9657V204.346Z" fill="black"/>
<path d="M39.6535 204.346H29.9657V214.034H39.6535V204.346Z" fill="black"/>
<path d="M49.3413 204.346H39.6535V214.034H49.3413V204.346Z" fill="black"/>
<path d="M68.717 204.346H59.0291V214.034H68.717V204.346Z" fill="black"/>
<path d="M88.0926 204.346H78.4048V214.034H88.0926V204.346Z" fill="black"/>
<path d="M126.844 204.346H117.156V214.034H126.844V204.346Z" fill="black"/>
<path d="M165.595 204.346H155.907V214.034H165.595V204.346Z" fill="black"/>
<path d="M175.283 204.346H165.595V214.034H175.283V204.346Z" fill="black"/>
<path d="M214.034 204.346H204.346V214.034H214.034V204.346Z" fill="black"/>
<path d="M10.59 214.034H0.902222V223.722H10.59V214.034Z" fill="black"/>
<path d="M29.9657 214.034H20.2779V223.722H29.9657V214.034Z" fill="black"/>
<path d="M39.6535 214.034H29.9657V223.722H39.6535V214.034Z" fill="black"/>
<path d="M49.3413 214.034H39.6535V223.722H49.3413V214.034Z" fill="black"/>
<path d="M68.717 214.034H59.0291V223.722H68.717V214.034Z" fill="black"/>
<path d="M117.156 214.034H107.468V223.722H117.156V214.034Z" fill="black"/>
<path d="M126.844 214.034H117.156V223.722H126.844V214.034Z" fill="black"/>
<path d="M146.22 214.034H136.532V223.722H146.22V214.034Z" fill="black"/>
<path d="M155.907 214.034H146.22V223.722H155.907V214.034Z" fill="black"/>
<path d="M165.595 214.034H155.907V223.722H165.595V214.034Z" fill="black"/>
<path d="M194.659 214.034H184.971V223.722H194.659V214.034Z" fill="black"/>
<path d="M204.346 214.034H194.659V223.722H204.346V214.034Z" fill="black"/>
<path d="M223.722 214.034H214.034V223.722H223.722V214.034Z" fill="black"/>
<path d="M233.41 214.034H223.722V223.722H233.41V214.034Z" fill="black"/>
<path d="M243.098 214.034H233.41V223.722H243.098V214.034Z" fill="black"/>
<path d="M10.59 223.722H0.902222V233.41H10.59V223.722Z" fill="black"/>
<path d="M68.717 223.722H59.0291V233.41H68.717V223.722Z" fill="black"/>
<path d="M97.7804 223.722H88.0926V233.41H97.7804V223.722Z" fill="black"/>
<path d="M107.468 223.722H97.7804V233.41H107.468V223.722Z" fill="black"/>
<path d="M117.156 223.722H107.468V233.41H117.156V223.722Z" fill="black"/>
<path d="M136.532 223.722H126.844V233.41H136.532V223.722Z" fill="black"/>
<path d="M146.22 223.722H136.532V233.41H146.22V223.722Z" fill="black"/>
<path d="M175.283 223.722H165.595V233.41H175.283V223.722Z" fill="black"/>
<path d="M184.971 223.722H175.283V233.41H184.971V223.722Z" fill="black"/>
<path d="M194.659 223.722H184.971V233.41H194.659V223.722Z" fill="black"/>
<path d="M204.346 223.722H194.659V233.41H204.346V223.722Z" fill="black"/>
<path d="M223.722 223.722H214.034V233.41H223.722V223.722Z" fill="black"/>
<path d="M233.41 223.722H223.722V233.41H233.41V223.722Z" fill="black"/>
<path d="M243.098 223.722H233.41V233.41H243.098V223.722Z" fill="black"/>
<path d="M10.59 233.41H0.902222V243.098H10.59V233.41Z" fill="black"/>
<path d="M20.2779 233.41H10.59V243.098H20.2779V233.41Z" fill="black"/>
<path d="M29.9657 233.41H20.2779V243.098H29.9657V233.41Z" fill="black"/>
<path d="M39.6535 233.41H29.9657V243.098H39.6535V233.41Z" fill="black"/>
<path d="M49.3413 233.41H39.6535V243.098H49.3413V233.41Z" fill="black"/>
<path d="M59.0291 233.41H49.3413V243.098H59.0291L59.0291 233.41Z" fill="black"/>
<path d="M68.717 233.41H59.0291L59.0291 243.098H68.717V233.41Z" fill="black"/>
<path d="M88.0926 233.41H78.4048V243.098H88.0926V233.41Z" fill="black"/>
<path d="M117.156 233.41H107.468V243.098H117.156V233.41Z" fill="black"/>
<path d="M126.844 233.41H117.156V243.098H126.844V233.41Z" fill="black"/>
<path d="M165.595 233.41H155.907V243.098H165.595V233.41Z" fill="black"/>
<path d="M214.034 233.41H204.346V243.098H214.034V233.41Z" fill="black"/>
<path d="M243.098 233.41H233.41V243.098H243.098V233.41Z" fill="black"/>
<mask id="mask0_1606_3875" style="mask-type:alpha" maskUnits="userSpaceOnUse" x="0" y="0" width="244" height="244">
<path d="M10.59 0.9021H0.902222V10.5899H10.59V0.9021Z" fill="black"/>
<path d="M20.2779 0.9021H10.59V10.5899H20.2779V0.9021Z" fill="black"/>
<path d="M29.9657 0.9021H20.2779V10.5899H29.9657V0.9021Z" fill="black"/>
<path d="M39.6535 0.9021H29.9657V10.5899H39.6535V0.9021Z" fill="black"/>
<path d="M49.3413 0.9021H39.6535V10.5899H49.3413V0.9021Z" fill="black"/>
<path d="M59.0291 0.9021H49.3413V10.5899H59.0291V0.9021Z" fill="black"/>
<path d="M68.717 0.9021H59.0291V10.5899H68.717V0.9021Z" fill="black"/>
<path d="M88.0926 0.9021H78.4048V10.5899H88.0926V0.9021Z" fill="black"/>
<path d="M97.7804 0.9021H88.0926V10.5899H97.7804V0.9021Z" fill="black"/>
<path d="M136.532 0.9021H126.844V10.5899H136.532V0.9021Z" fill="black"/>
<path d="M165.595 0.9021H155.907V10.5899H165.595V0.9021Z" fill="black"/>
<path d="M184.971 0.9021H175.283V10.5899H184.971V0.9021Z" fill="black"/>
<path d="M194.659 0.9021H184.971V10.5899H194.659V0.9021Z" fill="black"/>
<path d="M204.346 0.9021H194.659V10.5899H204.346V0.9021Z" fill="black"/>
<path d="M214.034 0.9021H204.346V10.5899H214.034V0.9021Z" fill="black"/>
<path d="M223.722 0.9021H214.034V10.5899H223.722V0.9021Z" fill="black"/>
<path d="M233.41 0.9021H223.722V10.5899H233.41V0.9021Z" fill="black"/>
<path d="M243.098 0.9021H233.41V10.5899H243.098V0.9021Z" fill="black"/>
<path d="M10.59 10.5899H0.902222V20.2777H10.59V10.5899Z" fill="black"/>
<path d="M68.717 10.5899H59.0291L59.0291 20.2777H68.717V10.5899Z" fill="black"/>
<path d="M126.844 10.5899H117.156V20.2777H126.844V10.5899Z" fill="black"/>
<path d="M136.532 10.5899H126.844V20.2777H136.532V10.5899Z" fill="black"/>
<path d="M165.595 10.5899H155.907V20.2777H165.595V10.5899Z" fill="black"/>
<path d="M184.971 10.5899H175.283V20.2777H184.971V10.5899Z" fill="black"/>
<path d="M243.098 10.5899H233.41V20.2777H243.098V10.5899Z" fill="black"/>
<path d="M10.59 20.2777H0.902222V29.9656H10.59V20.2777Z" fill="black"/>
<path d="M29.9657 20.2777H20.2779V29.9656H29.9657V20.2777Z" fill="black"/>
<path d="M39.6535 20.2777H29.9657V29.9656H39.6535V20.2777Z" fill="black"/>
<path d="M49.3413 20.2777H39.6535V29.9656H49.3413V20.2777Z" fill="black"/>
<path d="M68.717 20.2777H59.0291V29.9656H68.717V20.2777Z" fill="black"/>
<path d="M97.7804 20.2777H88.0926V29.9656H97.7804V20.2777Z" fill="black"/>
<path d="M107.468 20.2777H97.7804V29.9656H107.468V20.2777Z" fill="black"/>
<path d="M117.156 20.2777H107.468V29.9656H117.156V20.2777Z" fill="black"/>
<path d="M126.844 20.2777H117.156V29.9656H126.844V20.2777Z" fill="black"/>
<path d="M136.532 20.2777H126.844V29.9656H136.532V20.2777Z" fill="black"/>
<path d="M165.595 20.2777H155.907V29.9656H165.595V20.2777Z" fill="black"/>
<path d="M184.971 20.2777H175.283V29.9656H184.971V20.2777Z" fill="black"/>
<path d="M204.346 20.2777H194.659V29.9656H204.346V20.2777Z" fill="black"/>
<path d="M214.034 20.2777H204.346V29.9656H214.034V20.2777Z" fill="black"/>
<path d="M223.722 20.2777H214.034V29.9656H223.722V20.2777Z" fill="black"/>
<path d="M243.098 20.2777H233.41V29.9656H243.098V20.2777Z" fill="black"/>
<path d="M10.59 29.9656H0.902222V39.6534H10.59V29.9656Z" fill="black"/>
<path d="M29.9657 29.9656H20.2779V39.6534H29.9657V29.9656Z" fill="black"/>
<path d="M39.6535 29.9656H29.9657V39.6534H39.6535V29.9656Z" fill="black"/>
<path d="M49.3413 29.9656H39.6535V39.6534H49.3413V29.9656Z" fill="black"/>
<path d="M68.717 29.9656H59.0291V39.6534H68.717V29.9656Z" fill="black"/>
<path d="M97.7804 29.9656H88.0926V39.6534H97.7804V29.9656Z" fill="black"/>
<path d="M107.468 29.9656H97.7804V39.6534H107.468V29.9656Z" fill="black"/>
<path d="M136.532 29.9656H126.844V39.6534H136.532V29.9656Z" fill="black"/>
<path d="M184.971 29.9656H175.283V39.6534H184.971V29.9656Z" fill="black"/>
<path d="M204.346 29.9656H194.659V39.6534H204.346V29.9656Z" fill="black"/>
<path d="M214.034 29.9656H204.346V39.6534H214.034V29.9656Z" fill="black"/>
<path d="M223.722 29.9656H214.034V39.6534H223.722V29.9656Z" fill="black"/>
<path d="M243.098 29.9656H233.41V39.6534H243.098V29.9656Z" fill="black"/>
<path d="M10.59 39.6534H0.902222V49.3412H10.59V39.6534Z" fill="black"/>
<path d="M29.9657 39.6534H20.2779V49.3412H29.9657V39.6534Z" fill="black"/>
<path d="M39.6535 39.6534H29.9657V49.3412H39.6535V39.6534Z" fill="black"/>
<path d="M49.3413 39.6534H39.6535V49.3412H49.3413V39.6534Z" fill="black"/>
<path d="M68.717 39.6534H59.0291V49.3412H68.717V39.6534Z" fill="black"/>
<path d="M88.0926 39.6534H78.4048V49.3412H88.0926V39.6534Z" fill="black"/>
<path d="M107.468 39.6534H97.7804V49.3412H107.468V39.6534Z" fill="black"/>
<path d="M117.156 39.6534H107.468V49.3412H117.156V39.6534Z" fill="black"/>
<path d="M126.844 39.6534H117.156V49.3412H126.844V39.6534Z" fill="black"/>
<path d="M146.22 39.6534H136.532V49.3412H146.22V39.6534Z" fill="black"/>
<path d="M184.971 39.6534H175.283V49.3412H184.971V39.6534Z" fill="black"/>
<path d="M204.346 39.6534H194.659V49.3412H204.346V39.6534Z" fill="black"/>
<path d="M214.034 39.6534H204.346V49.3412H214.034V39.6534Z" fill="black"/>
<path d="M223.722 39.6534H214.034V49.3412H223.722V39.6534Z" fill="black"/>
<path d="M243.098 39.6534H233.41V49.3412H243.098V39.6534Z" fill="black"/>
<path d="M10.59 49.3412H0.902222V59.029H10.59V49.3412Z" fill="black"/>
<path d="M68.717 49.3412H59.0291V59.029H68.717V49.3412Z" fill="black"/>
<path d="M146.22 49.3412H136.532V59.029H146.22V49.3412Z" fill="black"/>
<path d="M184.971 49.3412H175.283V59.029H184.971V49.3412Z" fill="black"/>
<path d="M243.098 49.3412H233.41V59.029H243.098V49.3412Z" fill="black"/>
<path d="M10.59 59.029H0.902222V68.7168H10.59V59.029Z" fill="black"/>
<path d="M20.2779 59.029L10.59 59.029V68.7168H20.2779V59.029Z" fill="black"/>
<path d="M29.9657 59.029H20.2779V68.7168H29.9657V59.029Z" fill="black"/>
<path d="M39.6535 59.029H29.9657V68.7168H39.6535V59.029Z" fill="black"/>
<path d="M49.3413 59.029H39.6535V68.7168H49.3413V59.029Z" fill="black"/>
<path d="M59.0291 59.029L49.3413 59.029V68.7168H59.0291L59.0291 59.029Z" fill="black"/>
<path d="M68.717 59.029H59.0291L59.0291 68.7168H68.717V59.029Z" fill="black"/>
<path d="M88.0926 59.029H78.4048V68.7168H88.0926V59.029Z" fill="black"/>
<path d="M107.468 59.029H97.7804V68.7168H107.468V59.029Z" fill="black"/>
<path d="M126.844 59.029H117.156V68.7168H126.844V59.029Z" fill="black"/>
<path d="M146.22 59.029H136.532V68.7168H146.22V59.029Z" fill="black"/>
<path d="M165.595 59.029H155.907V68.7168H165.595V59.029Z" fill="black"/>
<path d="M184.971 59.029H175.283V68.7168H184.971V59.029Z" fill="black"/>
<path d="M194.659 59.029L184.971 59.029V68.7168H194.659V59.029Z" fill="black"/>
<path d="M204.346 59.029H194.659V68.7168H204.346V59.029Z" fill="black"/>
<path d="M214.034 59.029H204.346V68.7168H214.034V59.029Z" fill="black"/>
<path d="M223.722 59.029H214.034V68.7168H223.722V59.029Z" fill="black"/>
<path d="M233.41 59.029L223.722 59.029V68.7168H233.41V59.029Z" fill="black"/>
<path d="M243.098 59.029H233.41V68.7168H243.098V59.029Z" fill="black"/>
<path d="M88.0926 68.7168H78.4048V78.4047H88.0926V68.7168Z" fill="black"/>
<path d="M107.468 68.7168H97.7804V78.4047H107.468V68.7168Z" fill="black"/>
<path d="M126.844 68.7168H117.156V78.4047H126.844V68.7168Z" fill="black"/>
<path d="M136.532 68.7168H126.844V78.4047H136.532V68.7168Z" fill="black"/>
<path d="M155.907 68.7168H146.22L146.22 78.4047H155.907V68.7168Z" fill="black"/>
<path d="M165.595 68.7168H155.907V78.4047H165.595V68.7168Z" fill="black"/>
<path d="M10.59 78.4047H0.902222V88.0925H10.59V78.4047Z" fill="black"/>
<path d="M39.6535 78.4047H29.9657V88.0925H39.6535V78.4047Z" fill="black"/>
<path d="M49.3413 78.4047H39.6535V88.0925H49.3413V78.4047Z" fill="black"/>
<path d="M59.0291 78.4047H49.3413V88.0925H59.0291V78.4047Z" fill="black"/>
<path d="M68.717 78.4047H59.0291V88.0925H68.717V78.4047Z" fill="black"/>
<path d="M78.4048 78.4047H68.717V88.0925H78.4048V78.4047Z" fill="black"/>
<path d="M88.0926 78.4047H78.4048V88.0925H88.0926V78.4047Z" fill="black"/>
<path d="M97.7804 78.4047H88.0926V88.0925H97.7804V78.4047Z" fill="black"/>
<path d="M136.532 78.4047H126.844V88.0925H136.532V78.4047Z" fill="black"/>
<path d="M165.595 78.4047H155.907V88.0925H165.595V78.4047Z" fill="black"/>
<path d="M175.283 78.4047H165.595V88.0925H175.283V78.4047Z" fill="black"/>
<path d="M184.971 78.4047H175.283V88.0925H184.971V78.4047Z" fill="black"/>
<path d="M204.346 78.4047H194.659V88.0925H204.346V78.4047Z" fill="black"/>
<path d="M243.098 78.4047H233.41V88.0925H243.098V78.4047Z" fill="black"/>
<path d="M20.2779 88.0925H10.59V97.7803H20.2779V88.0925Z" fill="black"/>
<path d="M39.6535 88.0925H29.9657V97.7803H39.6535V88.0925Z" fill="black"/>
<path d="M49.3413 88.0925H39.6535V97.7803H49.3413V88.0925Z" fill="black"/>
<path d="M78.4048 88.0925H68.717V97.7803H78.4048V88.0925Z" fill="black"/>
<path d="M88.0926 88.0925H78.4048V97.7803H88.0926V88.0925Z" fill="black"/>
<path d="M126.844 88.0925H117.156V97.7803H126.844V88.0925Z" fill="black"/>
<path d="M155.907 88.0925H146.22V97.7803H155.907V88.0925Z" fill="black"/>
<path d="M175.283 88.0925H165.595V97.7803H175.283V88.0925Z" fill="black"/>
<path d="M184.971 88.0925H175.283V97.7803H184.971V88.0925Z" fill="black"/>
<path d="M204.346 88.0925H194.659V97.7803H204.346V88.0925Z" fill="black"/>
<path d="M214.034 88.0925H204.346V97.7803H214.034V88.0925Z" fill="black"/>
<path d="M223.722 88.0925H214.034V97.7803H223.722V88.0925Z" fill="black"/>
<path d="M233.41 88.0925H223.722V97.7803H233.41V88.0925Z" fill="black"/>
<path d="M243.098 88.0925H233.41V97.7803H243.098V88.0925Z" fill="black"/>
<path d="M10.59 97.7803H0.902222V107.468H10.59V97.7803Z" fill="black"/>
<path d="M20.2779 97.7803H10.59V107.468H20.2779V97.7803Z" fill="black"/>
<path d="M39.6535 97.7803H29.9657V107.468H39.6535V97.7803Z" fill="black"/>
<path d="M49.3413 97.7803H39.6535V107.468H49.3413V97.7803Z" fill="black"/>
<path d="M59.0291 97.7803H49.3413V107.468H59.0291V97.7803Z" fill="black"/>
<path d="M68.717 97.7803H59.0291V107.468H68.717V97.7803Z" fill="black"/>
<path d="M78.4048 97.7803H68.717V107.468H78.4048V97.7803Z" fill="black"/>
<path d="M97.7804 97.7803H88.0926V107.468H97.7804V97.7803Z" fill="black"/>
<path d="M117.156 97.7803H107.468V107.468H117.156V97.7803Z" fill="black"/>
<path d="M126.844 97.7803H117.156V107.468H126.844V97.7803Z" fill="black"/>
<path d="M146.22 97.7803H136.532V107.468H146.22L146.22 97.7803Z" fill="black"/>
<path d="M165.595 97.7803H155.907V107.468H165.595V97.7803Z" fill="black"/>
<path d="M175.283 97.7803H165.595V107.468H175.283V97.7803Z" fill="black"/>
<path d="M184.971 97.7803H175.283V107.468H184.971V97.7803Z" fill="black"/>
<path d="M194.659 97.7803H184.971V107.468H194.659V97.7803Z" fill="black"/>
<path d="M204.346 97.7803H194.659V107.468H204.346V97.7803Z" fill="black"/>
<path d="M214.034 97.7803H204.346V107.468H214.034V97.7803Z" fill="black"/>
<path d="M223.722 97.7803H214.034V107.468H223.722V97.7803Z" fill="black"/>
<path d="M233.41 97.7803H223.722V107.468H233.41V97.7803Z" fill="black"/>
<path d="M10.59 107.468H0.902222V117.156H10.59V107.468Z" fill="black"/>
<path d="M49.3413 107.468H39.6535V117.156H49.3413V107.468Z" fill="black"/>
<path d="M59.0291 107.468H49.3413V117.156H59.0291V107.468Z" fill="black"/>
<path d="M78.4048 107.468H68.717V117.156H78.4048V107.468Z" fill="black"/>
<path d="M97.7804 107.468H88.0926V117.156H97.7804V107.468Z" fill="black"/>
<path d="M107.468 107.468H97.7804V117.156H107.468V107.468Z" fill="black"/>
<path d="M146.22 107.468H136.532V117.156H146.22V107.468Z" fill="black"/>
<path d="M155.907 107.468H146.22V117.156H155.907V107.468Z" fill="black"/>
<path d="M204.346 107.468H194.659V117.156H204.346V107.468Z" fill="black"/>
<path d="M223.722 107.468H214.034V117.156H223.722V107.468Z" fill="black"/>
<path d="M233.41 107.468H223.722V117.156H233.41V107.468Z" fill="black"/>
<path d="M10.59 117.156H0.902222V126.844H10.59V117.156Z" fill="black"/>
<path d="M39.6535 117.156H29.9657V126.844H39.6535V117.156Z" fill="black"/>
<path d="M49.3413 117.156H39.6535V126.844H49.3413V117.156Z" fill="black"/>
<path d="M59.0291 117.156H49.3413V126.844H59.0291V117.156Z" fill="black"/>
<path d="M68.717 117.156H59.0291V126.844H68.717V117.156Z" fill="black"/>
<path d="M78.4048 117.156H68.717V126.844H78.4048V117.156Z" fill="black"/>
<path d="M88.0926 117.156H78.4048V126.844H88.0926V117.156Z" fill="black"/>
<path d="M107.468 117.156H97.7804V126.844H107.468V117.156Z" fill="black"/>
<path d="M117.156 117.156H107.468V126.844H117.156V117.156Z" fill="black"/>
<path d="M136.532 117.156H126.844V126.844H136.532V117.156Z" fill="black"/>
<path d="M146.22 117.156H136.532V126.844H146.22V117.156Z" fill="black"/>
<path d="M165.595 117.156H155.907V126.844H165.595V117.156Z" fill="black"/>
<path d="M194.659 117.156H184.971V126.844H194.659V117.156Z" fill="black"/>
<path d="M214.034 117.156H204.346V126.844H214.034V117.156Z" fill="black"/>
<path d="M223.722 117.156H214.034V126.844H223.722V117.156Z" fill="black"/>
<path d="M243.098 117.156H233.41V126.844H243.098V117.156Z" fill="black"/>
<path d="M10.59 126.844H0.902222V136.532H10.59V126.844Z" fill="black"/>
<path d="M20.2779 126.844H10.59V136.532H20.2779V126.844Z" fill="black"/>
<path d="M78.4048 126.844H68.717V136.532H78.4048V126.844Z" fill="black"/>
<path d="M88.0926 126.844H78.4048V136.532H88.0926V126.844Z" fill="black"/>
<path d="M97.7804 126.844H88.0926V136.532H97.7804V126.844Z" fill="black"/>
<path d="M126.844 126.844H117.156V136.532H126.844V126.844Z" fill="black"/>
<path d="M146.22 126.844H136.532V136.532H146.22V126.844Z" fill="black"/>
<path d="M155.907 126.844H146.22V136.532H155.907V126.844Z" fill="black"/>
<path d="M165.595 126.844H155.907V136.532H165.595V126.844Z" fill="black"/>
<path d="M175.283 126.844H165.595V136.532H175.283V126.844Z" fill="black"/>
<path d="M204.346 126.844H194.659V136.532H204.346V126.844Z" fill="black"/>
<path d="M223.722 126.844H214.034V136.532H223.722V126.844Z" fill="black"/>
<path d="M233.41 126.844H223.722V136.532H233.41V126.844Z" fill="black"/>
<path d="M243.098 126.844H233.41V136.532H243.098V126.844Z" fill="black"/>
<path d="M10.59 136.532H0.902222V146.219H10.59V136.532Z" fill="black"/>
<path d="M20.2779 136.532H10.59V146.219H20.2779V136.532Z" fill="black"/>
<path d="M29.9657 136.532H20.2779V146.219H29.9657V136.532Z" fill="black"/>
<path d="M68.717 136.532H59.0291V146.219H68.717V136.532Z" fill="black"/>
<path d="M97.7804 136.532H88.0926V146.219H97.7804V136.532Z" fill="black"/>
<path d="M117.156 136.532H107.468V146.219H117.156V136.532Z" fill="black"/>
<path d="M126.844 136.532H117.156V146.219H126.844V136.532Z" fill="black"/>
<path d="M146.22 136.532H136.532V146.219H146.22V136.532Z" fill="black"/>
<path d="M175.283 136.532H165.595V146.219H175.283V136.532Z" fill="black"/>
<path d="M194.659 136.532H184.971V146.219H194.659V136.532Z" fill="black"/>
<path d="M204.346 136.532H194.659V146.219H204.346V136.532Z" fill="black"/>
<path d="M223.722 136.532H214.034V146.219H223.722V136.532Z" fill="black"/>
<path d="M20.2779 146.219H10.59V155.907H20.2779V146.219Z" fill="black"/>
<path d="M78.4048 146.219L68.717 146.219V155.907H78.4048V146.219Z" fill="black"/>
<path d="M126.844 146.219H117.156V155.907H126.844V146.219Z" fill="black"/>
<path d="M146.22 146.219H136.532V155.907H146.22V146.219Z" fill="black"/>
<path d="M155.907 146.219L146.22 146.219V155.907H155.907V146.219Z" fill="black"/>
<path d="M184.971 146.219H175.283V155.907H184.971V146.219Z" fill="black"/>
<path d="M204.346 146.219H194.659V155.907H204.346V146.219Z" fill="black"/>
<path d="M233.41 146.219L223.722 146.219V155.907H233.41V146.219Z" fill="black"/>
<path d="M10.59 155.907H0.902222V165.595H10.59V155.907Z" fill="black"/>
<path d="M59.0291 155.907H49.3413V165.595H59.0291V155.907Z" fill="black"/>
<path d="M68.717 155.907H59.0291V165.595H68.717V155.907Z" fill="black"/>
<path d="M78.4048 155.907H68.717V165.595H78.4048V155.907Z" fill="black"/>
<path d="M97.7804 155.907H88.0926V165.595H97.7804V155.907Z" fill="black"/>
<path d="M107.468 155.907H97.7804V165.595H107.468V155.907Z" fill="black"/>
<path d="M126.844 155.907H117.156V165.595H126.844V155.907Z" fill="black"/>
<path d="M155.907 155.907H146.22L146.22 165.595H155.907V155.907Z" fill="black"/>
<path d="M165.595 155.907H155.907V165.595H165.595V155.907Z" fill="black"/>
<path d="M175.283 155.907H165.595V165.595H175.283V155.907Z" fill="black"/>
<path d="M184.971 155.907H175.283V165.595H184.971V155.907Z" fill="black"/>
<path d="M194.659 155.907H184.971V165.595H194.659V155.907Z" fill="black"/>
<path d="M204.346 155.907H194.659V165.595H204.346V155.907Z" fill="black"/>
<path d="M214.034 155.907H204.346V165.595H214.034V155.907Z" fill="black"/>
<path d="M233.41 155.907H223.722V165.595H233.41V155.907Z" fill="black"/>
<path d="M88.0926 165.595H78.4048V175.283H88.0926V165.595Z" fill="black"/>
<path d="M107.468 165.595H97.7804V175.283H107.468V165.595Z" fill="black"/>
<path d="M126.844 165.595H117.156V175.283H126.844V165.595Z" fill="black"/>
<path d="M155.907 165.595H146.22V175.283H155.907V165.595Z" fill="black"/>
<path d="M165.595 165.595H155.907V175.283H165.595V165.595Z" fill="black"/>
<path d="M204.346 165.595H194.659V175.283H204.346V165.595Z" fill="black"/>
<path d="M214.034 165.595H204.346V175.283H214.034V165.595Z" fill="black"/>
<path d="M223.722 165.595H214.034V175.283H223.722V165.595Z" fill="black"/>
<path d="M10.59 175.283H0.902222V184.971H10.59V175.283Z" fill="black"/>
<path d="M20.2779 175.283H10.59V184.971H20.2779V175.283Z" fill="black"/>
<path d="M29.9657 175.283H20.2779V184.971H29.9657V175.283Z" fill="black"/>
<path d="M39.6535 175.283H29.9657V184.971H39.6535V175.283Z" fill="black"/>
<path d="M49.3413 175.283H39.6535V184.971H49.3413V175.283Z" fill="black"/>
<path d="M59.0291 175.283H49.3413V184.971H59.0291V175.283Z" fill="black"/>
<path d="M68.717 175.283H59.0291V184.971H68.717V175.283Z" fill="black"/>
<path d="M88.0926 175.283H78.4048V184.971H88.0926V175.283Z" fill="black"/>
<path d="M126.844 175.283H117.156V184.971H126.844V175.283Z" fill="black"/>
<path d="M155.907 175.283H146.22V184.971H155.907V175.283Z" fill="black"/>
<path d="M165.595 175.283H155.907V184.971H165.595V175.283Z" fill="black"/>
<path d="M184.971 175.283H175.283V184.971H184.971V175.283Z" fill="black"/>
<path d="M204.346 175.283H194.659V184.971H204.346V175.283Z" fill="black"/>
<path d="M214.034 175.283H204.346V184.971H214.034V175.283Z" fill="black"/>
<path d="M223.722 175.283H214.034V184.971H223.722V175.283Z" fill="black"/>
<path d="M243.098 175.283H233.41V184.971H243.098V175.283Z" fill="black"/>
<path d="M10.59 184.971H0.902222V194.659H10.59V184.971Z" fill="black"/>
<path d="M68.717 184.971H59.0291L59.0291 194.659H68.717V184.971Z" fill="black"/>
<path d="M88.0926 184.971H78.4048V194.659H88.0926V184.971Z" fill="black"/>
<path d="M107.468 184.971H97.7804V194.659H107.468V184.971Z" fill="black"/>
<path d="M146.22 184.971H136.532V194.659H146.22L146.22 184.971Z" fill="black"/>
<path d="M165.595 184.971H155.907V194.659H165.595V184.971Z" fill="black"/>
<path d="M204.346 184.971H194.659V194.659H204.346V184.971Z" fill="black"/>
<path d="M223.722 184.971H214.034V194.659H223.722V184.971Z" fill="black"/>
<path d="M10.59 194.659H0.902222V204.346H10.59V194.659Z" fill="black"/>
<path d="M29.9657 194.659H20.2779V204.346H29.9657V194.659Z" fill="black"/>
<path d="M39.6535 194.659H29.9657V204.346H39.6535V194.659Z" fill="black"/>
<path d="M49.3413 194.659H39.6535V204.346H49.3413V194.659Z" fill="black"/>
<path d="M68.717 194.659H59.0291V204.346H68.717V194.659Z" fill="black"/>
<path d="M88.0926 194.659H78.4048V204.346H88.0926V194.659Z" fill="black"/>
<path d="M97.7804 194.659H88.0926V204.346H97.7804V194.659Z" fill="black"/>
<path d="M107.468 194.659H97.7804V204.346H107.468V194.659Z" fill="black"/>
<path d="M136.532 194.659H126.844V204.346H136.532V194.659Z" fill="black"/>
<path d="M146.22 194.659H136.532V204.346H146.22V194.659Z" fill="black"/>
<path d="M165.595 194.659H155.907V204.346H165.595V194.659Z" fill="black"/>
<path d="M175.283 194.659H165.595V204.346H175.283V194.659Z" fill="black"/>
<path d="M184.971 194.659H175.283V204.346H184.971V194.659Z" fill="black"/>
<path d="M194.659 194.659H184.971V204.346H194.659V194.659Z" fill="black"/>
<path d="M204.346 194.659H194.659V204.346H204.346V194.659Z" fill="black"/>
<path d="M243.098 194.659H233.41V204.346H243.098V194.659Z" fill="black"/>
<path d="M10.59 204.346H0.902222V214.034H10.59V204.346Z" fill="black"/>
<path d="M29.9657 204.346H20.2779V214.034H29.9657V204.346Z" fill="black"/>
<path d="M39.6535 204.346H29.9657V214.034H39.6535V204.346Z" fill="black"/>
<path d="M49.3413 204.346H39.6535V214.034H49.3413V204.346Z" fill="black"/>
<path d="M68.717 204.346H59.0291V214.034H68.717V204.346Z" fill="black"/>
<path d="M88.0926 204.346H78.4048V214.034H88.0926V204.346Z" fill="black"/>
<path d="M126.844 204.346H117.156V214.034H126.844V204.346Z" fill="black"/>
<path d="M165.595 204.346H155.907V214.034H165.595V204.346Z" fill="black"/>
<path d="M175.283 204.346H165.595V214.034H175.283V204.346Z" fill="black"/>
<path d="M214.034 204.346H204.346V214.034H214.034V204.346Z" fill="black"/>
<path d="M10.59 214.034H0.902222V223.722H10.59V214.034Z" fill="black"/>
<path d="M29.9657 214.034H20.2779V223.722H29.9657V214.034Z" fill="black"/>
<path d="M39.6535 214.034H29.9657V223.722H39.6535V214.034Z" fill="black"/>
<path d="M49.3413 214.034H39.6535V223.722H49.3413V214.034Z" fill="black"/>
<path d="M68.717 214.034H59.0291V223.722H68.717V214.034Z" fill="black"/>
<path d="M117.156 214.034H107.468V223.722H117.156V214.034Z" fill="black"/>
<path d="M126.844 214.034H117.156V223.722H126.844V214.034Z" fill="black"/>
<path d="M146.22 214.034H136.532V223.722H146.22V214.034Z" fill="black"/>
<path d="M155.907 214.034H146.22V223.722H155.907V214.034Z" fill="black"/>
<path d="M165.595 214.034H155.907V223.722H165.595V214.034Z" fill="black"/>
<path d="M194.659 214.034H184.971V223.722H194.659V214.034Z" fill="black"/>
<path d="M204.346 214.034H194.659V223.722H204.346V214.034Z" fill="black"/>
<path d="M223.722 214.034H214.034V223.722H223.722V214.034Z" fill="black"/>
<path d="M233.41 214.034H223.722V223.722H233.41V214.034Z" fill="black"/>
<path d="M243.098 214.034H233.41V223.722H243.098V214.034Z" fill="black"/>
<path d="M10.59 223.722H0.902222V233.41H10.59V223.722Z" fill="black"/>
<path d="M68.717 223.722H59.0291V233.41H68.717V223.722Z" fill="black"/>
<path d="M97.7804 223.722H88.0926V233.41H97.7804V223.722Z" fill="black"/>
<path d="M107.468 223.722H97.7804V233.41H107.468V223.722Z" fill="black"/>
<path d="M117.156 223.722H107.468V233.41H117.156V223.722Z" fill="black"/>
<path d="M136.532 223.722H126.844V233.41H136.532V223.722Z" fill="black"/>
<path d="M146.22 223.722H136.532V233.41H146.22V223.722Z" fill="black"/>
<path d="M175.283 223.722H165.595V233.41H175.283V223.722Z" fill="black"/>
<path d="M184.971 223.722H175.283V233.41H184.971V223.722Z" fill="black"/>
<path d="M194.659 223.722H184.971V233.41H194.659V223.722Z" fill="black"/>
<path d="M204.346 223.722H194.659V233.41H204.346V223.722Z" fill="black"/>
<path d="M223.722 223.722H214.034V233.41H223.722V223.722Z" fill="black"/>
<path d="M233.41 223.722H223.722V233.41H233.41V223.722Z" fill="black"/>
<path d="M243.098 223.722H233.41V233.41H243.098V223.722Z" fill="black"/>
<path d="M10.59 233.41H0.902222V243.098H10.59V233.41Z" fill="black"/>
<path d="M20.2779 233.41H10.59V243.098H20.2779V233.41Z" fill="black"/>
<path d="M29.9657 233.41H20.2779V243.098H29.9657V233.41Z" fill="black"/>
<path d="M39.6535 233.41H29.9657V243.098H39.6535V233.41Z" fill="black"/>
<path d="M49.3413 233.41H39.6535V243.098H49.3413V233.41Z" fill="black"/>
<path d="M59.0291 233.41H49.3413V243.098H59.0291L59.0291 233.41Z" fill="black"/>
<path d="M68.717 233.41H59.0291L59.0291 243.098H68.717V233.41Z" fill="black"/>
<path d="M88.0926 233.41H78.4048V243.098H88.0926V233.41Z" fill="black"/>
<path d="M117.156 233.41H107.468V243.098H117.156V233.41Z" fill="black"/>
<path d="M126.844 233.41H117.156V243.098H126.844V233.41Z" fill="black"/>
<path d="M165.595 233.41H155.907V243.098H165.595V233.41Z" fill="black"/>
<path d="M214.034 233.41H204.346V243.098H214.034V233.41Z" fill="black"/>
<path d="M243.098 233.41H233.41V243.098H243.098V233.41Z" fill="black"/>
</mask>
<g mask="url(#mask0_1606_3875)">
</g>
</svg>
