<svg width="28" height="27" viewBox="0 0 28 27" fill="none" xmlns="http://www.w3.org/2000/svg">
<g clip-path="url(#clip0_1596_22462)">
<path d="M12.3053 0.414832C14.375 0.172658 16.5029 0.421013 18.456 1.15203C20.219 1.81141 21.8439 2.84922 23.168 4.18876C22.0356 5.3117 20.9135 6.44503 19.7824 7.56937C19.0533 6.85437 18.2037 6.25876 17.2688 5.84521C16.0264 5.28838 14.645 5.0434 13.2872 5.13723C11.7533 5.23612 10.2499 5.76908 8.99916 6.66276C7.44722 7.75704 6.28495 9.39411 5.77391 11.2239C5.3907 12.5663 5.35895 14.0044 5.66827 15.365C5.91691 16.4778 6.40126 17.5364 7.0744 18.4563C7.69922 19.3117 8.48755 20.0475 9.38433 20.6114C10.4179 21.2643 11.5971 21.6852 12.8107 21.8329C13.8508 21.9636 14.915 21.8956 15.9306 21.6363C16.0422 21.5826 16.1059 21.7096 16.1759 21.7728C17.3205 22.9233 18.4706 24.0681 19.6155 25.218C17.5559 26.2182 15.233 26.675 12.9487 26.5138C11.0368 26.387 9.15395 25.8372 7.4784 24.9073C6.77969 24.5252 6.1234 24.0695 5.50252 23.5717C5.01199 23.1556 4.52736 22.7286 4.10566 22.2414C3.39178 21.4719 2.77932 20.6089 2.27474 19.6885C2.16236 19.4716 2.03201 19.2637 1.94042 19.0367C1.81484 18.7824 1.70527 18.5209 1.59626 18.2593C1.45691 17.8865 1.30801 17.5165 1.20631 17.1313C1.19423 17.0805 1.16332 17.0378 1.13551 16.9951C0.902327 16.1899 0.771687 15.3563 0.701732 14.5216C0.628125 13.472 0.664367 12.4131 0.836024 11.3742C1.17821 9.25363 2.0556 7.22353 3.36059 5.51819C4.2068 4.40846 5.22972 3.4333 6.37962 2.64272C8.13384 1.43157 10.1873 0.656726 12.3053 0.414832ZM13.687 1.83304C13.5269 1.86085 13.3791 1.93868 13.2549 2.04178C12.9627 2.29267 12.8576 2.73881 13.0254 3.08915C13.2032 3.51112 13.7322 3.73813 14.1593 3.56675C14.5928 3.41954 14.8554 2.90625 14.7139 2.46938C14.5987 2.03588 14.1261 1.74482 13.687 1.83304ZM6.1588 4.97934C6.00906 4.98721 5.86128 5.03328 5.73289 5.11082C5.41065 5.30833 5.23056 5.7216 5.32945 6.0902C5.41627 6.48577 5.80088 6.79424 6.20769 6.7816C6.62995 6.79312 7.02467 6.46161 7.09379 6.04637C7.15672 5.75615 7.04855 5.44093 6.837 5.23584C6.66169 5.05801 6.40716 4.96558 6.1588 4.97934ZM2.90097 12.621C2.71498 12.6556 2.54023 12.7497 2.40819 12.8851C2.1427 13.1582 2.07892 13.6035 2.26716 13.9364C2.46831 14.3286 2.983 14.5225 3.39037 14.3472C3.81235 14.1924 4.06436 13.6892 3.92585 13.2596C3.81235 12.8267 3.3398 12.5303 2.90097 12.621ZM6.04699 20.2641C5.72418 20.3189 5.44352 20.5653 5.34912 20.8788C5.24039 21.2056 5.34547 21.5857 5.59916 21.8161C5.77194 21.97 6.00372 22.0605 6.23606 22.0498C6.5496 22.0428 6.85358 21.8568 6.99798 21.5778C7.13649 21.3298 7.14267 21.0154 7.01793 20.7603C6.85442 20.4012 6.43329 20.1891 6.04699 20.2641ZM13.6904 23.4116C13.36 23.4683 13.0745 23.7226 12.9855 24.0465C12.8768 24.3996 13.0172 24.8121 13.3201 25.0239C13.5409 25.1866 13.8376 25.2394 14.1003 25.1604C14.3703 25.0826 14.5975 24.8728 14.6922 24.6075C14.8318 24.2496 14.7023 23.8119 14.395 23.5832C14.1978 23.4301 13.9356 23.3677 13.6904 23.4116Z" fill="#A0A0A0"/>
<path d="M13.687 1.83304C14.1261 1.74483 14.5987 2.03589 14.7139 2.46938C14.8554 2.90625 14.5928 3.41954 14.1593 3.56675C13.7322 3.73813 13.2032 3.51113 13.0254 3.08915C12.8576 2.73881 12.9627 2.29267 13.2549 2.04179C13.3791 1.93868 13.5269 1.86086 13.687 1.83304Z" fill="#C1C1C1"/>
<path d="M2.90097 12.6211C3.33981 12.5303 3.81236 12.8267 3.92586 13.2596C4.06437 13.6892 3.81236 14.1924 3.39038 14.3472C2.98301 14.5225 2.46832 14.3286 2.26716 13.9364C2.07893 13.6035 2.1427 13.1582 2.4082 12.8851C2.54024 12.7497 2.71499 12.6556 2.90097 12.6211Z" fill="#C1C1C1"/>
<path d="M23.168 4.18879L23.1711 4.1857C23.8634 4.89143 24.4904 5.66347 25.0144 6.50265C26.0261 8.10853 26.6827 9.93636 26.9212 11.8195C27.0805 13.0804 27.0692 14.3649 26.8636 15.6199C26.5068 17.8677 25.5448 20.0141 24.1131 21.7827C22.9247 23.2571 21.4197 24.4809 19.7189 25.3158L19.7012 25.3085C19.6728 25.2776 19.6441 25.2478 19.6155 25.2181C18.4706 24.0682 17.3205 22.9233 16.1759 21.7728C16.1059 21.7096 16.0422 21.5826 15.9306 21.6363C14.915 21.8956 13.8508 21.9636 12.8107 21.833C11.597 21.6852 10.4179 21.2643 9.38432 20.6114C8.48755 20.0476 7.69922 19.3118 7.0744 18.4563C6.40125 17.5365 5.9169 16.4779 5.66827 15.3651C5.35895 14.0044 5.3907 12.5663 5.7739 11.2239C6.28494 9.39413 7.44721 7.75707 8.99915 6.66279C10.2499 5.7691 11.7533 5.23615 13.2872 5.13726C14.645 5.04342 16.0264 5.28841 17.2688 5.84524C18.2037 6.25879 19.0533 6.85439 19.7824 7.5694C20.9135 6.44506 22.0355 5.31173 23.168 4.18879ZM13.2858 9.35733C12.6894 9.4374 12.1089 9.64614 11.6035 9.97372C10.9551 10.3797 10.4303 10.9733 10.0892 11.6569C9.6796 12.4772 9.56553 13.4327 9.73803 14.3306C9.84845 14.8883 10.076 15.4229 10.3999 15.8901C10.6227 16.2138 10.8958 16.4987 11.1768 16.7717C12.7874 18.3846 14.3967 19.9987 16.0087 21.6099C17.3879 21.2427 18.6684 20.5159 19.6905 19.5197C20.9578 18.302 21.8161 16.6698 22.1153 14.9386C22.1221 14.9094 22.1215 14.8568 22.1673 14.8655C22.9997 14.8667 23.8322 14.8653 24.6649 14.8669C25.1998 14.8585 25.7008 14.452 25.81 13.9269C25.8162 13.8929 25.81 13.8617 25.7912 13.8328C25.8255 13.6724 25.8497 13.5074 25.83 13.3431L25.8232 13.3543C25.7656 12.7829 25.2378 12.3115 24.6643 12.3101C22.3988 12.3081 20.1333 12.3098 17.8674 12.3081C17.6865 11.6878 17.3477 11.1189 16.9114 10.6441C16.1866 9.87146 15.1622 9.37952 14.1014 9.32867C13.8294 9.32924 13.5552 9.3135 13.2858 9.35733ZM21.3312 20.2667C20.9761 20.3246 20.6747 20.6204 20.6092 20.9741C20.5676 21.2028 20.6053 21.4523 20.7421 21.6442C20.9039 21.9026 21.2141 22.0588 21.5178 22.0445C21.7515 22.0454 21.9751 21.9335 22.1403 21.7731C22.2772 21.6158 22.3777 21.4172 22.3839 21.2056C22.4081 20.8862 22.2418 20.5566 21.9662 20.392C21.783 20.2667 21.5478 20.2305 21.3312 20.2667Z" fill="#686868"/>
<path d="M6.15876 4.97937C6.40712 4.96561 6.66165 5.05804 6.83696 5.23587C7.04852 5.44096 7.15668 5.75618 7.09375 6.0464C7.02464 6.46164 6.62991 6.79315 6.20765 6.78163C5.80084 6.79427 5.41623 6.4858 5.32942 6.09023C5.23052 5.72163 5.41061 5.30836 5.73285 5.11085C5.86124 5.03331 6.00902 4.98724 6.15876 4.97937Z" fill="#C3C3C3"/>
<path d="M13.2858 9.35734C13.5552 9.31351 13.8294 9.32925 14.1014 9.32868C15.1622 9.37954 16.1865 9.87147 16.9114 10.6441C17.3477 11.1189 17.6865 11.6878 17.8674 12.3081C16.5282 12.3078 15.1886 12.3078 13.8491 12.3078C13.5066 12.3047 13.1683 12.4601 12.9441 12.7183C12.7753 12.9107 12.6705 13.158 12.6508 13.4133C12.6174 13.8114 12.8014 14.2197 13.1197 14.4607C13.3338 14.6267 13.6052 14.7136 13.876 14.7079C17.4353 14.7068 20.9949 14.7062 24.5542 14.7088C24.6879 14.7099 24.8236 14.7046 24.9531 14.6672C25.3524 14.5599 25.6841 14.2326 25.7912 13.8328C25.81 13.8617 25.8162 13.8929 25.81 13.9269C25.7007 14.452 25.1998 14.8585 24.6649 14.8669C23.8322 14.8653 22.9997 14.8667 22.1673 14.8655C22.1215 14.8568 22.122 14.9094 22.1153 14.9386C21.8161 16.6698 20.9578 18.3021 19.6905 19.5197C18.6684 20.5159 17.3878 21.2427 16.0087 21.6099C14.3966 19.9987 12.7874 18.3847 11.1767 16.7718C10.8958 16.4987 10.6227 16.2138 10.3999 15.8901C10.076 15.4229 9.84842 14.8883 9.73801 14.3306C9.56551 13.4327 9.67957 12.4772 10.0892 11.6569C10.4303 10.9733 10.9551 10.3797 11.6035 9.97373C12.1089 9.64615 12.6893 9.43741 13.2858 9.35734Z" fill="#474747"/>
<path d="M12.9442 12.7183C13.1684 12.4601 13.5066 12.3047 13.8491 12.3078C15.1887 12.3078 16.5282 12.3078 17.8675 12.3081C20.1333 12.3098 22.3988 12.3081 24.6644 12.3101C25.2378 12.3115 25.7657 12.7829 25.8233 13.3543C25.8179 13.3636 25.807 13.3816 25.8013 13.3906C25.698 12.8705 25.1953 12.459 24.6644 12.4621C21.1534 12.4649 17.6424 12.4654 14.1315 12.4668C13.9143 12.4705 13.6893 12.4444 13.4811 12.5219C13.2265 12.6017 13.011 12.7776 12.8554 12.9911C12.7616 13.1189 12.7321 13.2788 12.6509 13.4133C12.6705 13.158 12.7753 12.9107 12.9442 12.7183Z" fill="#BFBFBF"/>
<path d="M6.04699 20.2642C6.43329 20.1892 6.85443 20.4013 7.01794 20.7603C7.14268 21.0154 7.1365 21.3298 6.99799 21.5779C6.85359 21.8568 6.5496 22.0428 6.23607 22.0499C6.00373 22.0605 5.77195 21.9701 5.59917 21.8161C5.34547 21.5857 5.2404 21.2056 5.34913 20.8789C5.44352 20.5653 5.72419 20.319 6.04699 20.2642Z" fill="#BFBFBF"/>
<path d="M13.481 12.5219C13.6892 12.4443 13.9142 12.4705 14.1314 12.4668C17.6424 12.4654 21.1533 12.4648 24.6643 12.462C25.1953 12.4589 25.6979 12.8705 25.8013 13.3905C25.8069 13.3816 25.8179 13.3636 25.8232 13.3543L25.83 13.3431C25.8496 13.5074 25.8255 13.6723 25.7912 13.8328C25.6841 14.2325 25.3523 14.5598 24.9531 14.6672C24.8236 14.7045 24.6879 14.7099 24.5542 14.7087C20.9949 14.7062 17.4353 14.7068 13.876 14.7079C13.6052 14.7135 13.3338 14.6267 13.1197 14.4607C12.8014 14.2196 12.6174 13.8114 12.6508 13.4133C12.732 13.2787 12.7615 13.1189 12.8554 12.991C13.011 12.7775 13.2265 12.6017 13.481 12.5219Z" fill="#B0B0B0"/>
<path d="M1.1355 16.9951C1.16331 17.0378 1.19422 17.0805 1.2063 17.1313C1.308 17.5165 1.4569 17.8865 1.59625 18.2593C1.70525 18.5209 1.81482 18.7825 1.9404 19.0367C2.03199 19.2637 2.16235 19.4716 2.27473 19.6885C2.77931 20.6089 3.39177 21.4719 4.10565 22.2414C4.52734 22.7286 5.01197 23.1556 5.5025 23.5717C6.12339 24.0696 6.77968 24.5252 7.47839 24.9073C9.15394 25.8373 11.0368 26.3871 12.9487 26.5138C15.233 26.675 17.5559 26.2182 19.6155 25.2181C19.6441 25.2478 19.6728 25.2776 19.7012 25.3085L19.702 25.3257C18.5131 25.9165 17.2331 26.3239 15.9216 26.5312C14.3228 26.7812 12.6778 26.7416 11.0944 26.4048C9.18709 26.0016 7.37416 25.1627 5.82896 23.9743C4.0444 22.6081 2.6172 20.7791 1.7311 18.7131C1.49455 18.1548 1.28356 17.5831 1.1355 16.9951Z" fill="#939393"/>
<path d="M21.3312 20.2667C21.5478 20.2305 21.7829 20.2667 21.9661 20.392C22.2417 20.5566 22.4081 20.8862 22.3839 21.2056C22.3777 21.4172 22.2771 21.6158 22.1403 21.7731C21.9751 21.9335 21.7515 22.0454 21.5177 22.0445C21.214 22.0588 20.9039 21.9026 20.742 21.6442C20.6052 21.4523 20.5676 21.2028 20.6092 20.9741C20.6746 20.6204 20.9761 20.3246 21.3312 20.2667Z" fill="#767676"/>
<path d="M13.6903 23.4116C13.9356 23.3678 14.1977 23.4301 14.3949 23.5833C14.7023 23.8119 14.8318 24.2497 14.6922 24.6076C14.5975 24.8728 14.3702 25.0827 14.1002 25.1605C13.8376 25.2394 13.5409 25.1866 13.3201 25.0239C13.0172 24.8121 12.8767 24.3997 12.9854 24.0465C13.0745 23.7226 13.3599 23.4683 13.6903 23.4116Z" fill="#BEBEBE"/>
</g>
<defs>
<clipPath id="clip0_1596_22462">
<rect width="26.5838" height="26.5838" fill="white" transform="translate(0.55661 0.217224)"/>
</clipPath>
</defs>
</svg>
