<svg width="28" height="27" viewBox="0 0 28 27" fill="none" xmlns="http://www.w3.org/2000/svg">
<path d="M0.60907 5.43387C0.60907 2.5528 2.94464 0.217224 5.82571 0.217224H22.1336C25.0147 0.217224 27.3502 2.55279 27.3502 5.43387V21.7418C27.3502 24.6228 25.0147 26.9584 22.1336 26.9584H5.82572C2.94465 26.9584 0.60907 24.6228 0.60907 21.7418V5.43387Z" fill="#E20613"/>
<path d="M21.3957 7.40938L14.0092 4.75024L6.56366 7.40938V14.7692C6.56366 15.3731 6.67119 15.9721 6.88123 16.5383C7.55074 18.343 8.87767 19.828 10.596 20.6955L14.0092 22.4187L17.4241 20.7113C19.1734 19.8366 20.5068 18.3067 21.1342 16.4543C21.3074 15.943 21.3957 15.4069 21.3957 14.8671V7.40938Z" fill="white"/>
<path fill-rule="evenodd" clip-rule="evenodd" d="M14.0094 4.625L21.5136 7.32651V14.8671C21.5136 15.4197 21.4231 15.9686 21.2458 16.4921C20.6084 18.374 19.2539 19.9281 17.4768 20.8167L14.009 22.5506L10.5429 20.8007C8.79799 19.9198 7.45055 18.4119 6.7707 16.5793C6.5558 16 6.44577 15.387 6.44577 14.7692V7.32629L14.0094 4.625ZM6.68153 7.49243V14.7692C6.68153 15.359 6.78657 15.9442 6.99174 16.4973C7.6509 18.2741 8.95734 19.7362 10.6491 20.5903L14.0095 22.2868L17.3714 20.6058C19.0929 19.745 20.4051 18.2395 21.0225 16.4164C21.1916 15.9174 21.2778 15.394 21.2778 14.8671V7.49221L14.0091 4.87546L6.68153 7.49243Z" fill="#E20613"/>
<path fill-rule="evenodd" clip-rule="evenodd" d="M14.0634 6.10068L20.3414 8.36074V14.6423C20.3414 15.1078 20.2652 15.5702 20.1159 16.0111C19.5827 17.5854 18.4495 18.8855 16.9629 19.6288L14.0628 21.0789L11.1642 19.6155C9.70507 18.8789 8.5783 17.6179 8.00979 16.0854C7.82887 15.5977 7.73624 15.0817 7.73624 14.5615V8.36039L14.0634 6.10068ZM8.10937 8.62334V14.5615C8.10937 15.0374 8.19411 15.5094 8.35962 15.9556C8.89539 17.3999 9.95727 18.5882 11.3324 19.2824L14.0636 20.6613L16.796 19.2951C18.1947 18.5957 19.2608 17.3725 19.7625 15.8914C19.8987 15.489 19.9683 15.0671 19.9683 14.6423V8.62299L14.0629 6.49707L8.10937 8.62334Z" fill="#E20613"/>
<path fill-rule="evenodd" clip-rule="evenodd" d="M17.8922 11.7029C17.8922 11.5644 18.0035 11.4521 18.143 11.4521C18.2815 11.4521 18.3939 11.5662 18.3939 11.7029V15.466C18.3939 15.6045 18.2825 15.7169 18.143 15.7169C18.0045 15.7169 17.8922 15.6028 17.8922 15.466V11.7029Z" fill="#E20613"/>
<path d="M10.5149 14.5754C11.0622 14.5754 11.5059 14.1318 11.5059 13.5845C11.5059 13.0372 11.0622 12.5935 10.5149 12.5935C9.96762 12.5935 9.52396 13.0372 9.52396 13.5845C9.52396 14.1318 9.96762 14.5754 10.5149 14.5754Z" fill="#E20613"/>
<path d="M13.3043 14.5754C13.8516 14.5754 14.2953 14.1318 14.2953 13.5845C14.2953 13.0372 13.8516 12.5935 13.3043 12.5935C12.757 12.5935 12.3134 13.0372 12.3134 13.5845C12.3134 14.1318 12.757 14.5754 13.3043 14.5754Z" fill="#E20613"/>
<path d="M16.0937 14.5754C16.641 14.5754 17.0847 14.1318 17.0847 13.5845C17.0847 13.0372 16.641 12.5935 16.0937 12.5935C15.5464 12.5935 15.1028 13.0372 15.1028 13.5845C15.1028 14.1318 15.5464 14.5754 16.0937 14.5754Z" fill="#E20613"/>
</svg>
