<svg width="28" height="27" viewBox="0 0 28 27" fill="none" xmlns="http://www.w3.org/2000/svg">
<path fill-rule="evenodd" clip-rule="evenodd" d="M6.35107 0.238491C6.13386 0.253175 5.7865 0.29195 5.57916 0.324657C5.37182 0.357365 5.13755 0.398653 5.05857 0.416425C4.97958 0.434161 4.84556 0.466187 4.76075 0.487513C4.67595 0.508875 4.45784 0.584523 4.27606 0.655646C4.09429 0.72677 3.93021 0.799222 3.91147 0.816671C3.89273 0.834083 3.85683 0.848373 3.83173 0.848373C3.80663 0.848373 3.6631 0.921076 3.51281 1.00994C3.36252 1.0988 3.23172 1.1715 3.22217 1.1715C3.21259 1.1715 3.14527 1.21566 3.07253 1.26962C2.99979 1.32362 2.86124 1.43266 2.76463 1.51197C2.66801 1.59131 2.48878 1.75312 2.36632 1.8716C2.24389 1.99008 2.05077 2.20012 1.93717 2.33834C1.82358 2.47657 1.71156 2.6139 1.68826 2.64352C1.66499 2.67314 1.5873 2.79431 1.51564 2.91279C1.44397 3.03127 1.32657 3.24938 1.25477 3.39748C1.18296 3.54558 1.06954 3.82023 1.00273 4.00782C0.935912 4.19542 0.864358 4.41353 0.843714 4.49251C0.823106 4.5715 0.769718 4.83 0.725091 5.06696L0.643951 5.49779L0.632678 13.3246C0.622517 20.3987 0.627076 21.1929 0.679961 21.5823C0.71213 21.8192 0.770903 22.1585 0.81054 22.3362C0.850176 22.514 0.936954 22.8129 1.00341 23.0004C1.06987 23.188 1.18303 23.4624 1.25491 23.61C1.32679 23.7577 1.44056 23.9613 1.50774 24.0626C1.57488 24.1637 1.62984 24.2571 1.62984 24.2701C1.62984 24.283 1.73073 24.4187 1.85402 24.5716C1.97728 24.7244 2.19025 24.9606 2.32722 25.0964C2.46419 25.2323 2.71853 25.4544 2.8924 25.5901C3.06628 25.7258 3.21553 25.8368 3.22404 25.8368C3.23255 25.8368 3.35799 25.9065 3.50279 25.9917C3.64758 26.077 3.91955 26.207 4.10714 26.2808C4.29473 26.3546 4.48412 26.4297 4.52799 26.4477C4.57187 26.4658 4.74959 26.515 4.92293 26.5572C5.09626 26.5993 5.38349 26.656 5.56121 26.6832C5.73893 26.7104 6.16707 26.7502 6.51263 26.7718C6.94487 26.7988 9.39308 26.8067 14.3574 26.7971C20.8573 26.7845 21.6131 26.7771 21.9688 26.7234C22.186 26.6906 22.4445 26.6466 22.5433 26.6256C22.642 26.6047 22.7874 26.5699 22.8664 26.5484C22.9454 26.5269 23.1231 26.472 23.2613 26.4264C23.3995 26.3808 23.6096 26.3016 23.7281 26.2505C23.8465 26.1993 23.9839 26.1384 24.0332 26.1151C24.0826 26.0919 24.2055 26.0197 24.3062 25.9548C24.407 25.8899 24.5008 25.8368 24.5146 25.8368C24.5284 25.8368 24.6613 25.7468 24.8099 25.6369C24.9585 25.527 25.2021 25.3211 25.3512 25.1792C25.5003 25.0373 25.7282 24.7859 25.8576 24.6205C25.987 24.455 26.1508 24.2288 26.2217 24.1178C26.2926 24.0068 26.4172 23.7786 26.4985 23.6108C26.5799 23.4429 26.6959 23.1602 26.7563 22.9825C26.8167 22.8048 26.8912 22.5598 26.9219 22.4381C26.9525 22.3164 27.01 22.0026 27.0495 21.7407C27.1198 21.2754 27.1215 21.088 27.1211 13.521C27.1207 6.81249 27.1133 5.72596 27.0664 5.39149C27.0366 5.17916 26.9874 4.88195 26.9571 4.73102C26.9268 4.58008 26.8684 4.35159 26.8273 4.22324C26.7862 4.09489 26.7127 3.89294 26.664 3.77446C26.6153 3.65598 26.5493 3.50249 26.5174 3.43338C26.4855 3.36427 26.396 3.19462 26.3186 3.0564C26.2413 2.91817 26.0875 2.68391 25.977 2.53581C25.8665 2.38771 25.6399 2.12486 25.4733 1.95167C25.3068 1.77851 25.0318 1.53415 24.8622 1.40871C24.6926 1.28323 24.4246 1.10827 24.2666 1.01992C24.1086 0.93156 23.8152 0.792328 23.6146 0.710577C23.4139 0.628791 23.1554 0.536233 23.0401 0.504854C22.9248 0.473475 22.7255 0.425006 22.5971 0.397146C22.4688 0.369285 22.1941 0.318949 21.9868 0.285272C21.6411 0.229156 20.9917 0.223555 14.1779 0.217918C10.0904 0.214543 6.56828 0.223806 6.35107 0.238491ZM14.4432 3.47014C14.6286 3.48964 14.9113 3.53757 15.0715 3.57663C15.2316 3.61566 15.4516 3.68068 15.5602 3.72114C15.6688 3.76157 15.798 3.81259 15.8474 3.83449C15.8967 3.85639 15.9927 3.9003 16.0606 3.93207C16.1284 3.96388 16.29 4.05303 16.4196 4.13018C16.5492 4.20737 16.7441 4.3354 16.8527 4.41471C16.9613 4.49399 17.1457 4.64657 17.2626 4.75374C17.3794 4.86091 17.5814 5.07217 17.7114 5.22321C17.8414 5.37422 18.0253 5.62238 18.12 5.7746C18.2146 5.92687 18.3548 6.18537 18.4314 6.34905C18.508 6.51277 18.6211 6.79859 18.6827 6.98428C18.7443 7.16997 18.8172 7.48502 18.8446 7.68439C18.872 7.88376 18.8977 8.15999 18.9017 8.29822C18.9057 8.43644 18.9067 8.59553 18.904 8.65175C18.8992 8.7516 18.8952 8.75354 18.7286 8.73688C18.6348 8.72751 18.4207 8.69268 18.2529 8.65954C18.085 8.62641 17.8588 8.58368 17.7502 8.56462C17.6416 8.54555 17.4334 8.51428 17.2875 8.49511C17.1416 8.47597 17.0017 8.44327 16.9767 8.42251C16.9516 8.40173 16.9205 8.28447 16.9075 8.16197C16.8945 8.03943 16.8431 7.79378 16.7933 7.61606C16.7435 7.43834 16.6452 7.18792 16.5747 7.05957C16.5043 6.93122 16.3866 6.74542 16.3133 6.64669C16.24 6.54795 16.0849 6.37745 15.9688 6.2678C15.8527 6.15815 15.6803 6.01558 15.5857 5.951C15.4911 5.88641 15.2973 5.78078 15.1549 5.7163C15.0125 5.65182 14.7829 5.5682 14.6446 5.53047C14.4487 5.47701 14.2746 5.46203 13.8548 5.46247C13.4601 5.46293 13.2566 5.47941 13.093 5.52425C12.9703 5.55793 12.7441 5.64467 12.5904 5.71702C12.4367 5.78936 12.2302 5.90561 12.1314 5.97534C12.0327 6.04506 11.8737 6.17614 11.7781 6.26669C11.6825 6.3572 11.5324 6.52372 11.4446 6.6367C11.3569 6.74973 11.2376 6.93772 11.1797 7.05451C11.1217 7.1713 11.0434 7.35351 11.0056 7.45942C10.9677 7.56533 10.9198 7.72467 10.8989 7.81353C10.8781 7.90239 10.8523 8.06395 10.8417 8.17256C10.8294 8.29696 10.8003 8.38607 10.7629 8.41343C10.7303 8.43731 10.629 8.46642 10.5379 8.47816C10.4468 8.4899 10.2591 8.51669 10.1209 8.53776C9.98265 8.5588 9.70799 8.60939 9.51052 8.65014C9.31306 8.69092 9.08687 8.72536 9.00788 8.72665L8.86427 8.72905L8.85343 8.42388C8.84743 8.25603 8.86057 7.98231 8.88258 7.81558C8.90463 7.64888 8.94728 7.42269 8.97737 7.31294C9.00745 7.20322 9.04605 7.0567 9.06314 6.98733C9.08019 6.918 9.12055 6.79683 9.15282 6.71806C9.18506 6.63933 9.27317 6.44326 9.3486 6.28238C9.42403 6.12153 9.58237 5.84688 9.70049 5.67203C9.81857 5.49722 10.0412 5.21922 10.1951 5.05429C10.3491 4.88938 10.5828 4.66844 10.7145 4.56335C10.8462 4.45826 11.0658 4.29989 11.2026 4.21143C11.3394 4.12297 11.5712 3.99221 11.7178 3.92087C11.8644 3.84953 12.1382 3.74186 12.3263 3.68158C12.5144 3.62133 12.7495 3.5557 12.8487 3.53577C12.9479 3.51581 13.1259 3.49072 13.2444 3.48002C13.3629 3.46928 13.4666 3.45442 13.4748 3.44695C13.483 3.43948 13.6284 3.43367 13.7979 3.43399C13.9674 3.43435 14.2578 3.45061 14.4432 3.47014ZM15.7397 9.15974C16.0852 9.18872 16.5538 9.23837 16.7809 9.27007C17.0079 9.30177 17.2988 9.34094 17.4271 9.35714C17.5555 9.37333 17.8463 9.4204 18.0734 9.46172C18.3004 9.50305 18.5509 9.55252 18.6299 9.57166C18.7088 9.59076 19.0158 9.66371 19.312 9.73376C19.6082 9.80381 19.9152 9.87891 19.9942 9.90067C20.0731 9.92243 20.2186 9.96476 20.3173 9.99477C20.416 10.0248 20.5291 10.0618 20.5686 10.0771C20.6081 10.0923 20.806 10.1558 21.0084 10.2183C21.3175 10.3136 21.3797 10.3451 21.3974 10.4156C21.4089 10.4617 21.4103 11.1028 21.4004 11.8402C21.3905 12.5777 21.3663 13.3506 21.3465 13.558C21.3268 13.7653 21.2761 14.145 21.2339 14.4017C21.1917 14.6584 21.1426 14.925 21.1248 14.9941C21.107 15.0632 21.065 15.2409 21.0314 15.389C20.9979 15.5371 20.8994 15.875 20.8126 16.1398C20.7258 16.4046 20.5797 16.8004 20.4879 17.0194C20.3962 17.2384 20.2302 17.5953 20.119 17.8125C20.0077 18.0297 19.8243 18.359 19.7114 18.5443C19.5985 18.7297 19.4075 19.0205 19.287 19.1906C19.1665 19.3607 18.929 19.6696 18.7593 19.8769C18.5895 20.0842 18.2648 20.446 18.0376 20.6808C17.8104 20.9155 17.4711 21.2397 17.2835 21.4011C17.0959 21.5626 16.7728 21.8232 16.5654 21.9803C16.3581 22.1373 16.1404 22.2966 16.0817 22.3341C16.0229 22.3716 15.9583 22.4161 15.9381 22.433C15.9178 22.4499 15.8205 22.5142 15.7217 22.5759C15.623 22.6376 15.4857 22.7238 15.4165 22.7675C15.3474 22.8111 15.1778 22.9106 15.0396 22.9885C14.9013 23.0663 14.6348 23.2041 14.4472 23.2945C14.2596 23.3849 14.0472 23.4795 13.9752 23.5048C13.8616 23.5447 13.826 23.5422 13.7059 23.4861C13.6298 23.4505 13.3908 23.3337 13.1748 23.2265C12.9587 23.1192 12.7382 23.0003 12.6846 22.9621C12.6309 22.924 12.5717 22.8927 12.5529 22.8927C12.5341 22.8927 12.2458 22.7107 11.9122 22.4881C11.5786 22.2656 11.2027 22.0031 11.0768 21.9047C10.9509 21.8064 10.7328 21.6305 10.5921 21.514C10.4514 21.3975 10.102 21.0657 9.8157 20.7767C9.52937 20.4877 9.2545 20.2034 9.20485 20.1449C9.15519 20.0864 8.97654 19.8607 8.80783 19.6435C8.63912 19.4263 8.46974 19.202 8.43135 19.1451C8.39301 19.0882 8.34544 19.0155 8.32569 18.9836C8.30591 18.9516 8.21091 18.8046 8.11462 18.6569C8.01829 18.5092 7.82991 18.178 7.69599 17.9209C7.56211 17.6638 7.3636 17.2414 7.25489 16.9822C7.14618 16.723 6.99808 16.3191 6.92577 16.0846C6.85346 15.8501 6.77225 15.5855 6.74532 15.4964C6.71839 15.4074 6.67147 15.2135 6.64106 15.0656C6.61065 14.9177 6.55263 14.6028 6.51213 14.3658C6.47163 14.1288 6.41487 13.6361 6.38604 13.2708C6.35606 12.8913 6.33348 12.1445 6.33337 11.5285C6.33316 10.6483 6.3426 10.4369 6.38478 10.3767C6.41677 10.331 6.55701 10.2647 6.75279 10.2027C6.92677 10.1476 7.10144 10.089 7.14093 10.0725C7.18043 10.056 7.35007 10.0024 7.51791 9.95327C7.68576 9.90415 8.06543 9.80614 8.36163 9.73545C8.65783 9.66475 8.97288 9.59104 9.06174 9.57162C9.1506 9.5522 9.43581 9.49605 9.69557 9.44682C9.95529 9.3976 10.2187 9.35735 10.281 9.35735C10.3433 9.35735 10.462 9.34242 10.5448 9.32414C10.6276 9.30587 10.9134 9.26544 11.18 9.23428C11.4466 9.20315 11.8263 9.16384 12.0237 9.14696C12.2212 9.13005 12.9967 9.11418 13.7471 9.11163C14.6758 9.10847 15.312 9.12384 15.7397 9.15974ZM13.3981 11.7436C13.2457 11.7881 13.0297 11.8793 12.9182 11.9463C12.8067 12.0132 12.6357 12.1569 12.5382 12.2655C12.4408 12.3741 12.3073 12.5703 12.2416 12.7016C12.1616 12.8612 12.1071 13.0403 12.077 13.2426C12.0417 13.4803 12.0412 13.5983 12.075 13.7938C12.0987 13.9307 12.1761 14.1638 12.247 14.3119C12.3364 14.4983 12.4435 14.6476 12.5949 14.7968C12.7151 14.9153 12.8621 15.0365 12.9213 15.066C12.9805 15.0955 13.0401 15.1351 13.0536 15.1539C13.0671 15.1727 13.0695 15.2022 13.0588 15.2193C13.0482 15.2364 12.9403 15.2981 12.8189 15.3562C12.6975 15.4144 12.5073 15.5304 12.3964 15.614C12.2853 15.6976 12.1112 15.863 12.0093 15.9814C11.9075 16.0999 11.7673 16.3104 11.698 16.4492C11.6286 16.588 11.5405 16.8223 11.5022 16.9698C11.4611 17.1283 11.4323 17.3592 11.4319 17.5342L11.4313 17.8304H13.8727C16.1724 17.8304 16.3143 17.8268 16.3181 17.7676C16.3203 17.7331 16.319 17.5917 16.3152 17.4534C16.3113 17.3152 16.2762 17.081 16.2371 16.9329C16.1981 16.7848 16.1242 16.5774 16.0729 16.4721C16.0216 16.3668 15.9095 16.1891 15.8238 16.0772C15.7381 15.9653 15.5684 15.7895 15.4467 15.6866C15.3249 15.5837 15.1068 15.441 14.9619 15.3694C14.817 15.2978 14.6985 15.2181 14.6985 15.1922C14.6985 15.1664 14.7791 15.0935 14.8776 15.0303C14.9761 14.9671 15.1349 14.8297 15.2306 14.7251C15.3262 14.6204 15.4465 14.4483 15.4977 14.3426C15.549 14.2369 15.6181 14.0454 15.6513 13.917C15.6952 13.7478 15.7063 13.6047 15.6916 13.3964C15.6805 13.2385 15.6378 13.0123 15.5967 12.8938C15.5556 12.7754 15.4813 12.6171 15.4317 12.542C15.3821 12.467 15.2822 12.3401 15.2097 12.2599C15.1373 12.1797 14.9871 12.0524 14.876 11.9769C14.7515 11.8923 14.5518 11.8043 14.3557 11.7474C14.1806 11.6966 13.9559 11.6568 13.8563 11.6588C13.7567 11.6609 13.5505 11.699 13.3981 11.7436Z" fill="#0063CF"/>
</svg>
